<svg width="289" height="289" fill="none" xmlns="http://www.w3.org/2000/svg"><path d="M85.871 12.679c-6.907 3.156-10.057 13.675-6.355 21.26 1.658 3.432 5.803 7.585 9.118 9.135 11.383 5.37 24.811-7.806 20.28-19.931-3.039-8.028-15.694-13.786-23.043-10.464zm8.73 2.823c4.366 1.219 8.179 6.478 8.179 11.295 0 4.816-4.531 7.972-10.665 7.363-3.094-.277-4.973-1.495-7.294-4.761-1.326-1.883-1.657-2.99-1.823-6.035-.221-3.432-.11-3.93 1.27-5.536 2.211-2.602 6.079-3.488 10.334-2.325z" fill="#000"/><path d="M31.773 21.592c-.718 1.108 1.437 2.547 5.637 3.82 16.467 4.874 31.33 17.663 46.36 39.918 2.155 3.211 7.515 11.516 11.826 18.547 13.483 21.869 17.627 27.405 23.54 31.613 5.691 4.097 8.62 4.927 17.074 4.927 6.631-.055 7.626-.221 12.71-1.882 9.725-3.211 18.953-8.028 34.868-18.104 9.338-5.869 13.206-7.807 18.345-9.135 13.815-3.544 27.519 1.827 40.062 15.612 2.045 2.27 5.139 6.201 6.908 8.748 3.536 5.204 4.807 6.367 5.636 5.038.774-1.218.221-2.547-3.205-7.474-17.848-25.855-34.371-35.322-53.49-30.727-6.299 1.495-11.107 3.488-25.142 10.519-6.742 3.433-14.92 7.087-18.125 8.194-5.526 1.882-6.299 1.993-12.765 1.993-5.912 0-7.349-.166-10.112-1.273-8.786-3.488-16.688-11.018-30.779-29.399C83.274 49.22 74.654 40.25 62.552 32.388 52.108 25.69 33.321 19.046 31.773 21.592zm1.769 142.673c-.221.166-.387 13.287-.387 29.066v28.679h8.289v-26.021l15.361-.111 15.307-.166.166-3.211.165-3.156H41.444v-18.27H75.15v-7.197H54.54c-11.383 0-20.832.166-20.998.387zm49.898 4.319v4.706h7.736v-9.412H83.44v4.706zm121.568 6.92v11.682l-2.045-1.606c-2.984-2.325-5.857-3.1-11.217-3.1-10.057.055-15.141 4.761-16.633 15.447-.718 5.259.055 12.346 1.768 16.332 1.437 3.377 5.084 6.754 8.344 7.696 6.079 1.882 12.765 1.218 17.241-1.606l2.542-1.661v3.322h7.736l-.111-28.955-.165-28.9-3.703-.166-3.757-.167v11.682zm-3.979 14.782c2.763 2.049 3.537 4.153 3.813 10.298.387 7.64-.387 11.405-2.874 13.62-2.265 1.993-4.475 2.491-9.67 2.159-4.31-.222-6.189-1.274-8.012-4.374-.884-1.495-1.161-3.156-1.326-8.194-.277-8.913.939-12.291 5.194-14.228 2.597-1.218 10.886-.775 12.875.719zm54.043-25.191c-1.271 1.052-1.603 1.938-1.824 4.097-.276 3.599.663 5.26 3.537 6.256 1.878.665 2.652.72 4.531.111 2.873-.83 4.144-3.045 3.757-6.588-.387-3.377-1.768-4.651-5.526-4.983-2.541-.221-3.149-.055-4.475 1.107zm7.073 1.163c.497.388 1.105 1.716 1.271 2.99.276 1.993.11 2.491-1.216 3.764-1.271 1.274-1.768 1.495-3.702 1.218-2.819-.387-3.261-.83-3.592-3.875-.221-1.993-.055-2.713.884-3.654 1.326-1.329 4.807-1.606 6.355-.443z" fill="#000"/><path d="M256.398 169.968c0 2.602.165 3.322.829 3.322.442 0 .828-.498.828-1.107s.221-1.108.553-1.108c.276 0 .829.499 1.216 1.108.387.609.994 1.107 1.381 1.107.829 0 .884-.498.221-1.606-.331-.498-.331-1.218 0-1.827.94-1.771-.331-3.211-2.818-3.211h-2.21v3.322zm3.315-1.107c0 .277-.387.554-.829.554-.442 0-.829-.277-.829-.554 0-.332.387-.554.829-.554.442 0 .829.222.829.554zm-144.776 14.007c-4.144.996-6.686 2.27-9.118 4.706-7.46 7.363-7.239 24.249.387 30.837 8.51 7.253 24.535 5.647 30.392-3.1 2.266-3.433 2.929-6.201 2.929-12.678 0-7.585-1.05-10.741-4.918-14.672-4.587-4.706-12.544-6.754-19.672-5.093zm12.654 7.529c2.487 1.772 3.979 5.37 4.31 10.519.387 5.26-.552 10.076-2.431 12.236-2.266 2.768-4.366 3.543-9.284 3.598-8.288 0-11.383-3.155-11.77-12.124-.276-5.924.553-10.243 2.542-12.568 2.211-2.713 4.145-3.322 9.781-3.156 4.255.166 5.25.388 6.852 1.495zm35.697-7.197c-2.597.664-5.029 2.103-6.3 3.764l-1.105 1.551-.055-2.658v-2.602h-7.736v38.755h7.625l.221-13.177c.166-11.294.277-13.398 1.161-14.893 1.492-2.768 3.813-3.709 9.117-3.765h4.532v-3.377c0-2.602-.221-3.488-.885-3.764-1.105-.443-4.42-.333-6.575.166zm66.641.332c-1.934.443-4.365 1.384-5.415 2.049-3.979 2.713-5.25 9.356-2.763 14.284 2.21 4.429 6.299 6.09 14.975 6.09 7.128 0 9.173 1.107 9.173 4.982 0 2.436-1.99 4.263-5.305 4.762-2.929.443-16.522-.056-18.014-.609-.884-.332-.995 0-.995 2.934 0 2.658.221 3.377.995 3.709 1.934.776 16.411.997 20.224.333 8.178-1.44 10.499-4.153 10.168-12.014-.166-4.097-.332-4.762-1.879-6.699-2.431-2.99-5.471-3.931-14.036-4.485-8.288-.554-9.393-1.052-9.393-4.65 0-4.319 2.818-5.205 15.03-4.706l7.625.332v-2.99c0-1.661-.276-3.156-.552-3.322-1.326-.83-16.301-.83-19.838 0zM83.44 203.85c0 11.35-.276 21.648-.553 22.866-.276 1.328-1.16 2.823-2.21 3.709-1.437 1.329-2.155 1.55-4.973 1.55h-3.316v6.478l1.934.332c4.697.775 11.162-1.495 13.538-4.706 2.93-3.931 2.984-4.651 3.205-28.568l.166-22.256H83.44v20.595zm162.072 46.949c-.829.332-1.326 1.163-1.603 2.602-.165 1.163-.718 2.436-1.215 2.769-.774.664-.774.719.055.719.774 0 .939.775 1.05 4.817.11 3.211.387 4.872.884 5.038.497.166.663-1.052.663-4.817v-5.038h1.658c.939 0 1.658-.277 1.658-.553 0-.333-.774-.554-1.713-.554-1.548 0-1.658-.111-1.492-1.827.165-1.55.386-1.772 1.989-1.938 1.105-.11 1.768-.498 1.768-.996 0-.886-1.823-.997-3.702-.222zm-212.91 8.028c0 4.982.221 8.027.553 8.027.331 0 .553-1.55.553-3.598v-3.599h2.21c2.044 0 2.265.166 3.536 2.602 1.824 3.599 2.929 4.983 3.482 4.429.22-.276-.387-1.937-1.382-3.709l-1.768-3.266 1.437-1.44c1.27-1.273 1.436-1.772 1.16-3.765-.442-3.045-1.492-3.709-6.023-3.709h-3.758v8.028zm7.24-6.367c1.215.664 1.491 3.765.386 4.872-.387.387-1.99.664-3.592.664h-2.928v-6.09h2.541c1.382 0 2.984.277 3.592.554zm16.521 5.315c0 6.976.442 9.079 1.934 9.079.94 0 1.106-.885.277-1.384-.332-.221-.553-3.321-.553-7.529 0-5.979-.11-7.142-.829-7.142-.718 0-.829 1.163-.829 6.976zm74.599 1.107c0 6.201.166 8.028.718 7.862.442-.166.774-2.215.94-6.589l.276-6.311 2.321 5.149c1.326 2.768 2.652 5.093 3.039 5.093s1.713-2.27 2.929-5.038c1.215-2.768 2.376-5.149 2.652-5.259.221-.166.387 2.712.387 6.366 0 4.097.221 6.699.552 6.699.332 0 .553-3.045.553-8.027 0-7.308-.111-8.028-.995-8.028-.718 0-1.658 1.495-3.371 5.536-1.326 2.99-2.597 5.371-2.818 5.26-.221-.111-1.436-2.602-2.763-5.536-1.768-3.876-2.652-5.26-3.37-5.26-.995 0-1.05.554-1.05 8.083zm34.812-5.425v2.602l-2.376-.166c-2.873-.221-4.199.997-4.641 4.152-.608 4.651 2.265 7.807 5.967 6.423 1.05-.443 1.713-.388 2.1 0 .442.443.608-1.717.608-7.53 0-6.865-.11-8.138-.829-8.138-.608 0-.829.664-.829 2.657zm-.884 3.765c.663.277.884 1.163.884 4.152v3.82h-2.21c-2.542 0-3.315-.996-3.315-4.207s1.989-4.762 4.641-3.765zm20.225 1.605v8.027h2.763c6.465 0 9.615-3.986 6.244-7.861-.719-.831-.719-1.052.055-2.215 1.216-1.771 1.105-3.045-.497-4.595-1.161-1.218-1.824-1.384-4.973-1.384h-3.592v8.028zm7.239-5.869c1.105.886 1.215 1.274.773 2.602-.552 1.495-.829 1.606-3.757 1.772l-3.15.166v-5.592h2.431c1.547 0 2.874.388 3.703 1.052zm.718 7.031c1.105 1.108 1.105 2.381 0 3.987-.663.996-1.382 1.218-3.868 1.218h-2.984v-6.09h2.984c1.989 0 3.315.276 3.868.885zm68.299-2.214c0 6.976.442 9.079 1.934 9.079.939 0 1.105-.885.276-1.384-.331-.221-.552-3.321-.552-7.529 0-5.979-.111-7.142-.829-7.142-.719 0-.829 1.163-.829 6.976zm-160.967-5.481c-.718.664-.387 1.273.718 1.273.608 0 1.106-.387 1.106-.83 0-.831-1.161-1.163-1.824-.443zm137.206.388c0 .553.497.885 1.16.885 1.327 0 1.161-1.273-.221-1.55-.552-.111-.939.166-.939.665zm-143.505.165c-.387.166-.719.886-.719 1.606 0 .886-.442 1.55-1.215 1.882l-1.271.499h1.27c1.161.055 1.216.276 1.216 4.097 0 4.429.83 5.923 3.205 5.923 1.658 0 1.547-.885-.166-1.328-1.326-.332-1.381-.554-1.381-4.485v-4.152h1.658c.94 0 1.657-.277 1.657-.554 0-.332-.718-.553-1.602-.553-1.382 0-1.658-.222-1.824-1.55-.11-.997-.442-1.495-.828-1.385zm136.874 1.44c0 .83-.497 1.55-1.216 1.938l-1.271.609h1.271c1.161.055 1.216.276 1.216 4.484 0 4.706.497 5.536 3.26 5.536 1.547 0 1.492-.996-.055-1.218-1.16-.166-1.271-.498-1.437-4.484l-.166-4.263h1.713c.995 0 1.603-.221 1.382-.554-.166-.332-.939-.553-1.713-.553-1.05 0-1.326-.277-1.326-1.384 0-.886-.332-1.385-.829-1.385-.497 0-.829.499-.829 1.274zm-184.12 2.105c-2.431 1.384-2.32 8.581.11 9.91 1.16.609 3.868.719 5.195.221 1.768-.664.828-1.329-1.88-1.329-2.486 0-2.873-.166-3.315-1.439-.331-.775-.552-1.495-.552-1.661 0-.111 1.658-.221 3.647-.221h3.702l-.331-2.215c-.166-1.273-.608-2.602-.94-3.045-.773-.941-4.2-1.052-5.636-.221zm4.42 1.162c.387.388.664 1.218.664 1.938 0 1.163-.221 1.273-2.819 1.273-2.652 0-2.762-.055-2.43-1.273.717-2.27 3.149-3.377 4.585-1.938zm10.997-1.384c-.884.83-.276 1.328 1.27.996.885-.221 2.156-.221 2.764 0 1.215.388 1.547 2.491.442 2.491-2.21 0-4.973 1.274-5.415 2.547-1.16 2.99 1.768 5.481 5.028 4.263 1.05-.443 1.713-.387 2.1 0 .442.443.608-.719.608-4.097 0-3.931-.166-4.927-.995-5.647-.995-.941-5.084-1.329-5.802-.553zm5.028 6.643c-.165 1.993-.276 2.104-2.21 2.27-1.658.166-2.1-.055-2.376-.996-.442-1.495.497-2.658 2.376-2.935a24.96 24.96 0 001.934-.332c.276 0 .387.886.276 1.993zm4.311-6.366c.22.387.994 1.495 1.657 2.491.719.941 1.326 1.938 1.326 2.104 0 .221-.773 1.495-1.768 2.824-.94 1.328-1.547 2.602-1.326 2.823.387.443 2.431-1.55 3.592-3.543.608-.941.608-.941 1.215 0 1.106 1.882 3.15 3.986 3.537 3.598.221-.221-.387-1.494-1.326-2.878-.94-1.329-1.713-2.658-1.713-2.879 0-.222.552-1.163 1.27-2.104 2.045-2.713 2.211-3.101 1.272-3.101-.498 0-1.437.886-2.1 1.938-.719 1.052-1.437 1.938-1.658 1.938-.166 0-.884-.886-1.547-1.938-.663-1.052-1.547-1.938-1.99-1.938-.497 0-.662.277-.441.665zm11.106-.277c-.884.83-.276 1.328 1.271.996.884-.221 2.155-.221 2.763 0 1.216.388 1.547 2.491.442 2.491-2.21 0-4.973 1.274-5.415 2.547-1.16 2.99 1.768 5.481 5.029 4.263 1.05-.443 1.712-.387 2.1 0 .441.443.607-.719.607-4.097 0-3.931-.166-4.927-.995-5.647-.994-.941-5.083-1.329-5.802-.553zm5.029 6.643c-.166 1.993-.276 2.104-2.21 2.27-1.658.166-2.1-.055-2.377-.996-.442-1.495.498-2.658 2.377-2.935a24.97 24.97 0 001.934-.332c.276 0 .386.886.276 1.993zm12.82-2.159c0 3.765.221 5.149.829 5.647.497.388.939.609.994.499.056-.111 0-2.547-.165-5.426-.166-3.488-.498-5.315-.94-5.481-.552-.166-.718 1.052-.718 4.761zm5.581-3.433c-1.713 2.16-1.603 6.478.221 8.25 1.879 1.937 4.752 1.882 6.299-.056 1.603-2.048 1.603-6.976.056-8.526-1.713-1.716-5.139-1.495-6.576.332zm5.139.388c.773.554.939 1.384.773 3.986l-.165 3.322-2.155.166c-2.597.221-3.095-.388-3.095-3.875 0-3.765 2.155-5.426 4.642-3.599zm5.305 3.875c0 4.152.165 5.426.718 5.26.442-.166.718-1.772.829-4.762.166-4.263.221-4.539 1.492-4.872 2.597-.664 2.984-.055 3.15 4.817.11 3.045.386 4.651.884 4.817 1.05.332.939-9.468-.111-10.353-.442-.388-2.1-.609-3.868-.499l-3.094.166v5.426zm32.989-5.314c-.884.83-.277 1.163 1.547.886 1.16-.166 2.266-.056 2.763.387 1.492 1.274.939 2.16-1.658 2.547-3.868.554-5.36 3.433-2.984 5.813.94.942 1.547 1.108 3.15.831a95.208 95.208 0 013.039-.388c.829 0 .939-.609.939-3.986 0-5.204-.828-6.478-4.089-6.478-1.271 0-2.541.167-2.707.388zm5.028 6.644c-.166 1.993-.276 2.104-2.265 2.27-1.548.11-2.155-.056-2.432-.775-.663-1.772.829-2.935 4.421-3.488.276 0 .387.885.276 1.993zm17.462-6.589c-1.161.775-1.879 2.824-1.879 5.37 0 4.042 3.205 6.312 6.852 4.928 1.768-.665.829-1.329-1.823-1.329-1.935 0-2.819-.222-3.04-.886-.829-2.104-.442-2.436 2.984-2.436h3.316v-1.827c0-2.768-1.326-4.263-3.758-4.263-1.105 0-2.321.221-2.652.443zm4.089 1.329c.387.387.663 1.218.663 1.937 0 1.163-.276 1.274-2.487 1.274-2.265 0-2.486-.111-2.486-1.384 0-2.049 2.873-3.267 4.31-1.827zm23.208-1.162c-2.431 1.384-2.321 8.581.111 9.91 1.16.609 3.868.719 5.194.221 1.768-.664.829-1.329-1.879-1.329-2.486 0-2.873-.166-3.315-1.439-.332-.775-.553-1.495-.553-1.661 0-.111 1.658-.221 3.647-.221h3.703l-.332-2.215c-.166-1.273-.608-2.602-.939-3.045-.774-.941-4.2-1.052-5.637-.221zm4.421 1.162c.387.388.663 1.218.663 1.938 0 1.163-.221 1.273-2.818 1.273-2.652 0-2.763-.055-2.431-1.273.718-2.27 3.149-3.377 4.586-1.938zm5.471-1.384c-.94.885-.221 1.273 1.823.941 1.437-.222 2.487-.111 3.039.332 1.437 1.218.94 2.104-1.492 2.491-2.928.499-4.31 1.661-4.31 3.654 0 2.27 1.934 3.378 5.305 3.101l2.708-.277v-4.374c0-5.426-.553-6.256-4.145-6.256-1.381 0-2.763.166-2.928.388zm5.581 6.643c-.166 2.049-.221 2.104-2.376 2.104-2.1 0-2.211-.111-2.211-1.661 0-1.716.055-1.716 4.31-2.436.277 0 .387.886.277 1.993zm3.978-2.713c0 5.647.829 6.976 4.089 6.533 1.216-.166 2.708-.332 3.261-.387.828 0 .939-.665.939-5.26 0-4.263-.166-5.204-.829-5.204-.663 0-.829.886-.829 4.761v4.706l-2.321-.166-2.376-.166-.166-4.595c-.11-3.544-.331-4.54-.939-4.54-.663 0-.829.886-.829 4.318zm19.341.942c0 4.263.165 5.37.828 5.647 1.161.388 1.769-.221.94-1.052-.387-.387-.663-2.436-.663-5.259 0-2.713-.221-4.596-.553-4.596-.331 0-.552 2.104-.552 5.26zm12.543-4.872c-.608.553-.442 7.086.166 8.692.608 1.661 2.873 2.381 5.028 1.605 1.05-.442 1.713-.387 2.1 0 .442.443.608-.996.608-5.038 0-4.65-.166-5.647-.829-5.647-.663 0-.829.886-.829 4.762v4.705l-2.321-.166-2.376-.166-.165-4.595c-.166-4.208-.442-5.149-1.382-4.152z" fill="#000"/></svg>