<svg width="289" height="289" fill="none" xmlns="http://www.w3.org/2000/svg"><path d="M32.803 89.454C22.382 91.203 13.332 99.641 6.94 113.588c-3.059 6.602-4.978 13.598-6.033 21.861-.485 3.717-.548 5.116-.57 11.674 0 5.684.085 8.132.36 10.449.99 8.045 2.847 14.603 5.8 20.418 4.198 8.264 8.923 11.499 16.813 11.499 5.527 0 9.556-1.224 14.471-4.372l2.447-1.574 2.363-15.39c3.354-21.773 3.185-20.811 4.07-22.648.76-1.574 2.385-2.973 3.482-2.973.422 0 .907-1.311.907-2.448 0-.088-4.979-.175-11.075-.175-9.43 0-11.075.087-11.075.612 0 .35-.042.918-.127 1.268-.084.481.19.656 1.224.831 1.624.262 2.995 1.617 3.565 3.541.338 1.093.4 1.88.316 3.629-.126 2.23-4.62 32.398-4.936 33.054-.358.743-3.565 2.098-4.978 2.098-2.953 0-5.717-2.448-7.953-6.995-1.688-3.411-2.742-7.52-3.375-13.029-.401-3.367-.443-4.679-.338-11.455.17-10.756.95-17.358 3.186-26.889 3.417-14.516 7.91-23.872 13.859-28.813 3.354-2.798 7.32-3.672 10.273-2.23 4.599 2.274 7.447 9.532 7.953 20.418.21 4.548.253 4.722.95 4.722.358 0 .632-.043.632-.131 0-.043.802-7.083 1.772-15.608l1.751-15.522-.612-.13c-.443-.088-.822.262-1.476 1.398-1.435 2.536-2.173 2.58-7.341.306-2.426-1.093-3.713-1.399-6.223-1.53-1.73-.087-3.629-.087-4.22 0zm248.708 1.53a476.66 476.66 0 01-6.054 2.143c-1.266.48-1.434.612-1.624 1.792-.211 1.225-.19 1.268.316 1.006.802-.437 1.899.175 2.616 1.399 1.076 1.924.928 3.848-1.266 17.27-1.054 6.34-1.94 11.805-2.004 12.155-.084.393-.379.043-1.033-1.181-1.836-3.498-3.544-4.503-6.223-3.629-3.608 1.181-6.476 4.635-10.168 12.242-2.764 5.772-4.641 11.237-6.286 18.407-3.059 13.379-3.059 27.282.021 33.01 2.236 4.197 5.147 4.678 8.29 1.443 1.73-1.793 4.978-8.701 7.257-15.434 2.172-6.34 2.172-6.383 1.919-4.766-.105.7-.527 3.498-.949 6.209-1.477 9.794-.759 14.515 2.363 15.827 3.923 1.705 8.269-3.104 11.876-13.116 1.35-3.717 1.371-3.804.654-4.547l-.612-.656-1.097 2.71c-1.244 3.061-2.594 5.466-3.29 5.815-.718.394-1.329-.218-1.477-1.399-.106-.787 1.92-13.772 6.94-44.771l7.067-43.721-1.287.044c-.717.043-3.396.83-5.949 1.748zm-11.349 35.371c.886 1.093 1.35 2.623 1.582 5.159.507 5.684-1.265 17.139-4.387 28.288-1.498 5.422-2.574 8.482-4.093 11.63-2.109 4.416-3.818 5.422-5.105 3.061-.654-1.225-.696-1.443-.78-4.897-.042-2.011.042-5.028.19-6.733.886-10.45 4.83-27.72 7.678-33.622 1.751-3.629 3.523-4.678 4.915-2.886zm-199.684-4.153c-4.788 2.186-10.315 11.761-13.923 24.178-1.37 4.722-2.847 12.067-3.417 16.964-.633 5.421-.633 12.023 0 15.914 1.16 6.996 2.89 9.838 6.033 9.838 1.034-.044 2.11-.35 2.785-.787 2.383-1.706 5.759-8.001 8.564-15.915a455.644 455.644 0 011.667-4.678c.232-.612.084.83-.464 4.416-1.477 9.662-1.498 12.329-.106 14.865 1.266 2.274 3.08 2.798 5.696 1.661 2.489-1.093 4.388-3.322 6.476-7.695 1.582-3.322 3.333-8.044 3.333-9.05 0-.175-.274-.568-.633-.831-.57-.437-.654-.393-1.118.918-.95 2.536-2.363 5.422-3.1 6.34-.95 1.181-1.604 1.181-1.984-.087-.295-.875-.274-1.356.169-4.941.274-2.142 1.75-11.892 3.29-21.598 1.54-9.75 3.186-20.287 3.692-23.479l.886-5.727-4.345.218c-2.384.131-4.41.35-4.472.525-.085.131-.401 2.098-.718 4.328-.337 2.23-.675 3.892-.738 3.717-.084-.175-.274-1.137-.422-2.099-1.012-6.689-3.143-8.788-7.151-6.995zm4.451 4.896c1.603 2.93 1.772 10.8.443 19.588-1.75 11.455-6.434 26.145-9.176 28.768-5.105 4.897-4.979-12.81.274-34.059 2.067-8.394 4.219-14.078 5.738-14.996.928-.612 2.194-.263 2.721.699zm25.905-3.06c-5.527 2.099-6.519 2.667-6.54 3.673 0 .174.76.393 1.688.48 1.877.219 2.7 1.05 3.037 3.148.38 2.099-.274 7.477-3.27 26.889-2.995 19.281-4.408 28.725-4.408 29.119 0 .131 2.067.218 4.599.218h4.577l1.561-9.531c3.861-23.435 9.113-41.623 11.497-39.743.169.131.612 1.268 1.012 2.449 1.118 3.541 2.764 4.459 4.177 2.317.802-1.224 1.857-4.722 2.236-7.433.443-3.148.443-8.263 0-10.187-.843-3.629-3.312-4.809-5.505-2.58-2.616 2.58-5.949 12.461-10.295 30.474-.78 3.236-1.476 5.815-1.54 5.684-.063-.087.232-2.23.675-4.722 1.962-11.542 2.89-16.964 4.156-24.571l1.392-8.176-1.413.043c-.781.044-4.219 1.137-7.636 2.449zm37.738-2.317c-.042.087-.654.306-1.35.48-.696.132-2.405.656-3.797 1.137-1.392.481-3.607 1.268-4.936 1.705-2.51.875-2.637.962-2.848 2.449-.126.874-.042.962 1.245 1.137 1.476.262 2.341 1.136 2.616 2.667.316 1.748-.401 7.083-4.198 30.955-2.089 13.203-3.861 24.265-3.924 24.659-.105.568.422.655 4.683.655h4.831l1.561-10.405c1.666-11.149 2.067-12.811 4.831-20.856 1.961-5.64 2.784-7.651 5.548-13.335 2.763-5.684 4.345-7.913 5.864-8.219.928-.175 1.076-.088 1.392.918.443 1.443.844-1.137-4.599 30.911-2.067 12.155-2.236 15.084-1.075 18.232.675 1.836 1.919 3.06 3.48 3.454 2.722.656 5.759-1.924 8.417-7.127 1.54-2.973 4.177-9.575 3.987-9.925-.042-.087-.359-.437-.696-.83l-.633-.656-1.202 3.192c-1.414 3.716-2.637 5.902-3.291 5.902-.696 0-1.139-1.18-.992-2.536.169-1.443 1.414-8.919 2.722-16.264 3.269-18.538 3.923-22.998 3.944-27.108.043-8.351-2.721-12.635-6.94-10.755-4.198 1.836-8.332 8.569-13.88 22.648-1.392 3.541-2.553 6.339-2.595 6.252-.042-.088.928-6.515 2.173-14.297a3002.96 3002.96 0 002.32-14.691c.064-.393-.274-.524-1.244-.524-.718 0-1.371.087-1.414.175zm44.532.525c-4.24 1.88-9.577 10.537-12.953 21.073-1.223 3.804-1.793 6.034-3.459 13.685-.76 3.454-1.35 9.838-1.371 14.603 0 5.291.422 8.832 1.561 12.461.633 2.011 1.012 2.754 2.004 3.76 1.054 1.093 1.497 1.268 2.932 1.268 1.034-.044 2.109-.35 2.784-.787 2.426-1.749 5.633-7.739 8.839-16.614.886-2.449 1.561-4.066 1.498-3.585-.084.481-.464 3.235-.886 6.121-1.245 8.438-1.034 12.023.802 13.728 3.058 2.886 7.784.481 10.99-5.596.717-1.355 3.249-7.608 3.776-9.313.359-1.18.359-1.18-.316-1.924-.654-.699-.675-.699-1.182.525-1.94 4.809-2.489 5.99-3.206 6.733-1.034 1.093-1.519 1.093-2.004 0-.317-.699-.338-1.137-.148-2.492.506-3.935 2.764-18.713 5.379-35.327 1.54-9.881 2.806-17.97 2.806-18.013-.021-.044-2.004.087-4.43.218l-4.409.306-.654 4.373c-.379 2.404-.717 4.153-.801 3.934-.064-.262-.275-1.486-.486-2.798-.527-3.323-1.793-5.902-3.248-6.558-1.371-.612-2.089-.568-3.818.219zm4.198 4.328c.337.35.759 1.312.949 2.142 1.751 7.695.084 21.337-4.367 35.328-1.941 6.121-3.27 9.225-4.662 10.886-1.793 2.099-3.037 1.618-3.734-1.486-.696-3.192-.485-8.22.739-17.839.401-3.191 2.025-11.018 3.227-15.696 2.996-11.499 5.548-15.827 7.848-13.335zm27.128-2.798c-3.481 1.224-6.392 2.317-6.455 2.492-.085.175-.211.743-.275 1.224-.126.875-.042.962 1.308 1.137 1.646.263 2.489 1.181 2.679 2.93.211 2.098-.443 6.689-4.451 31.567-2.13 13.247-3.881 24.134-3.881 24.265 0 .088 2.151.175 4.809.175h4.789l.802-5.159c.421-2.798 1.181-7.651 1.645-10.799.759-4.985 1.076-6.34 2.616-11.193 2.362-7.433 4.725-13.423 7.235-18.363 3.354-6.602 5.675-8.832 6.793-6.515.337.7.422 1.224.316 2.099-.126 1.224-3.269 20.024-3.649 21.948-.127.612-.823 4.635-1.54 8.963-1.139 6.777-1.308 8.307-1.329 11.149-.021 3.061.042 3.498.591 4.984 1.645 4.46 5.716 4.853 9.155.831.759-.831 2.046-2.929 2.911-4.591 1.455-2.885 4.05-9.356 3.86-9.706-.042-.087-.358-.437-.696-.831l-.633-.655-1.202 3.191c-2.025 5.291-3.27 6.908-4.072 5.203-.506-1.006-.485-1.137 3.46-23.785 1.35-7.826 2.595-15.302 2.742-16.57 1.266-10.974-1.666-17.838-6.645-15.652-4.218 1.836-8.374 8.613-13.922 22.691-1.392 3.542-2.553 6.34-2.595 6.252-.063-.087 3.987-25.839 4.536-28.987.189-1.006-2.384-.481-8.902 1.705zm-100.328 79.923c-.337.699-.611 1.618-.611 2.011 0 1.137 1.16 3.279 1.793 3.279 1.898 0 2.721-4.241 1.16-5.902-.928-1.006-1.646-.831-2.342.612zm98.092 0c-.338.699-.612 1.618-.612 2.011 0 1.137 1.16 3.279 1.793 3.279 1.898 0 2.721-4.241 1.16-5.902-.928-1.006-1.645-.831-2.341.612zm-115.896-.394c-.084.262.127.437.485.437.359 0 .844.394 1.118.831l.507.831-1.878 11.717c-1.012 6.471-2.046 12.461-2.278 13.335-.464 1.705-1.118 2.58-1.962 2.58-.295 0-.527.175-.527.437s1.582.437 4.324.437 4.325-.175 4.325-.437-.296-.437-.654-.437c-.95 0-1.456-.7-1.456-2.099 0-.656.422-3.76.907-6.864l.928-5.684h1.583c1.961 0 2.489.743 2.489 3.367 0 .918.084 1.661.19 1.661.105 0 .59-2.492 1.097-5.596.485-3.061.928-5.815.991-6.121.19-1.137-.359-.438-.802.961-.654 2.23-2.278 3.761-3.923 3.761h-1.329l.97-5.903.949-5.902h2.026c1.139 0 2.383.218 2.805.437.928.525 1.667 2.142 1.856 3.979.233 2.317.528 1.88 1.013-1.531.274-1.792.548-3.541.612-3.935.126-.612-.57-.699-7.046-.699-4.578 0-7.236.175-7.32.437zm58.433 0c-.084.262.105.437.422.437.696 0 1.287.612 1.455 1.53.064.394-.316 3.323-.843 6.471-.528 3.192-1.371 8.482-1.878 11.761-.506 3.323-1.097 6.602-1.287 7.302-.4 1.399-1.096 2.23-1.877 2.23-.295 0-.527.175-.527.437s1.582.437 4.324.437 4.325-.175 4.325-.437-.254-.437-.591-.437c-.781 0-1.519-1.137-1.519-2.318 0-.568.422-3.541.907-6.645l.928-5.684h1.582c1.962 0 2.49.743 2.49 3.367 0 .918.105 1.661.211 1.661.126 0 .211-.044.211-.131 0-.044.421-2.711.949-5.946 1.076-6.602 1.012-6.165.759-6.165-.105 0-.401.656-.654 1.486-.654 2.23-2.278 3.761-3.923 3.761h-1.329l.97-5.903.949-5.902h2.025c1.139 0 2.384.218 2.806.437.928.525 1.666 2.142 1.856 3.979.232 2.317.528 1.88 1.013-1.531.274-1.792.548-3.541.612-3.935.126-.612-.57-.699-7.046-.699-4.578 0-7.236.175-7.32.437zm66.343 5.509c-1.054 1.793-3.839 4.984-4.366 4.984-.127 0-.274.394-.338.875-.084.743 0 .874.718.874.442 0 .822.131.822.35 0 .175-.527 3.323-1.16 6.995-1.16 6.646-1.413 9.619-.886 10.494 1.013 1.748 2.995.787 4.43-2.187 1.266-2.623 1.097-3.716-.19-1.224-1.73 3.323-1.772 2.624-.232-6.602l1.287-7.826h.675c.485 0 .78-.262.928-.831.338-1.399.253-1.792-.422-1.792h-.633l.528-2.886c.295-1.618.527-2.973.527-3.06 0-.656-.696.131-1.688 1.836zm-107.562 4.373c-2.194.655-2.764.961-1.878 1.005.992.088.928 1.443-.337 8.832-1.498 8.701-1.54 8.963-1.076 10.012.991 2.274 2.974 1.312 4.641-2.186 1.202-2.536 1.139-3.454-.106-1.137-.886 1.618-1.16 1.88-1.371 1.137-.105-.306.949-6.602 2.996-17.838.126-.656-.232-.612-2.869.175zm8.944-.482c-.106.088-1.055.394-2.11.7-1.033.306-1.708.656-1.476.743.654.306.949.962.949 2.274 0 .655-.612 4.809-1.371 9.225-.76 4.416-1.371 8.088-1.371 8.176 0 .087.717.087 1.624 0l1.603-.131.591-3.673c.97-5.946 3.987-13.16 5.527-13.16.527 0 .464.787-.696 7.476-.57 3.367-1.055 6.646-1.055 7.345 0 1.706.506 2.449 1.666 2.449 1.161 0 2.869-2.011 3.439-4.066.548-1.924.19-2.055-.717-.219-1.055 2.143-1.393 1.574-.823-1.443 1.941-10.318 2.13-11.892 1.687-13.859-.843-3.804-3.586-1.924-6.223 4.284-.675 1.574-1.244 2.755-1.286 2.711-.021-.087.274-2.142.654-4.591l.738-4.459-.57.043c-.316 0-.654.088-.78.175zm16.623.394c-2.595 1.356-5.021 5.159-6.118 9.575-.443 1.793-.569 2.886-.591 5.247 0 2.885.022 3.06.76 4.459 1.751 3.323 5.611 2.274 8.185-2.229 1.033-1.793.59-1.924-.95-.306-.949.961-1.687 1.442-2.341 1.442-1.034 0-2.046-.918-2.257-1.967-.232-1.312-.148-4.154.147-4.154.127-.043.971-.306 1.857-.612 2.004-.743 3.438-2.273 4.577-4.809.718-1.618.886-2.317.886-3.673 0-2.317-.548-3.279-1.961-3.41-.591-.087-1.583.131-2.194.437zm1.181 1.749c.738 1.88-1.118 7.389-2.848 8.482-.949.568-1.561.7-1.561.262 0-.131.338-1.617.76-3.279 1.223-4.765 2.911-7.301 3.649-5.465zm31.6-1.705c-1.012.306-1.898.655-1.962.787-.063.087.19.306.549.437.886.393.844 1.18-.528 9.269-.632 3.804-1.16 7.345-1.16 7.913 0 1.181 1.055 2.799 1.793 2.799 1.329-.088 3.418-2.973 4.831-6.69.443-1.137.844-2.011.907-1.924.042.088-.105 1.225-.359 2.449-.232 1.224-.421 2.842-.421 3.541 0 2.492 1.603 3.411 3.269 1.793 1.076-1.049 2.595-4.241 2.3-4.853-.148-.306-.422 0-.823.874-.696 1.487-1.16 1.705-1.16.481 0-.481.379-3.104.865-5.815a777.48 777.48 0 001.35-8.132l.485-3.148h-3.228l-.611 3.585c-.865 5.028-2.532 10.056-4.093 12.33-1.709 2.448-1.687 1.53.253-9.051l1.35-7.301-.865.044c-.485.043-1.729.306-2.742.612zm14.408.174c-2.11.918-2.658 1.268-1.878 1.312.654.044 1.034.787 1.034 2.011 0 .525-.569 4.416-1.266 8.701-.696 4.284-1.265 7.957-1.265 8.176 0 .218.696.393 1.54.393h1.518l.675-3.847c.739-4.154 2.152-9.794 2.848-11.368.591-1.268.95-1.224 1.477.131.527 1.356.886 1.399 1.54 0 .717-1.443.759-5.159.084-5.902-1.097-1.224-2.531 1.137-4.198 6.908-.485 1.749-.928 3.148-.97 3.148-.063 0 .928-5.815 1.582-9.313.211-1.137.19-1.18-.358-1.137-.317.044-1.372.394-2.363.787zm12.129-.612c-.105.087-1.054.393-2.109.7-1.034.306-1.709.655-1.477.743.654.306.95.962.95 2.273 0 .656-.612 4.81-1.372 9.226-.759 4.415-1.371 8.088-1.371 8.176 0 .087.717.087 1.625 0l1.603-.132.59-3.672c.971-5.946 3.987-13.16 5.527-13.16.528 0 .464.787-.696 7.476-1.413 8.176-1.392 9.313.274 9.881.992.306 2.405-1.093 3.418-3.41.949-2.186.738-3.192-.232-1.093-.76 1.617-1.034 1.88-1.245 1.18-.063-.218.359-3.06.949-6.252 1.266-6.995 1.393-8.263 1.055-9.925-.78-4.022-3.565-2.186-6.244 4.11-.675 1.574-1.245 2.754-1.287 2.711-.021-.088.274-2.143.654-4.591l.739-4.46-.57.044c-.316 0-.654.088-.781.175zm14.24.219c-.528.175-1.519.481-2.215.656-.929.262-1.14.437-.76.612 1.055.569 1.013 1.224-.358 9.269-.718 4.198-1.308 7.914-1.308 8.307 0 1.968 1.645 3.061 3.016 1.968 1.013-.787 3.017-4.722 2.806-5.465-.106-.306-.359 0-.696.83-.675 1.662-1.308 2.405-1.582 1.837-.169-.35.611-5.16 2.932-17.926.126-.569-.338-.612-1.835-.088zm14.365.263c-2.109.612-2.742.962-2.004 1.005.253.044.57.306.696.656.317.787.211 1.574-1.118 9.138-.527 3.104-.97 6.34-.97 7.302 0 1.486.084 1.836.654 2.404 1.392 1.487 3.312-.393 5.4-5.29.654-1.53 1.224-2.755 1.245-2.667.042.087-.127 1.399-.359 2.929-.485 3.279-.401 4.46.338 5.159.759.744 1.539.656 2.531-.306.97-.918 2.51-4.241 2.299-4.94-.105-.35-.274-.219-.485.393-.506 1.268-1.434 2.449-1.582 1.924-.063-.219.527-4.372 1.329-9.181l1.456-8.789h-3.228l-.612 3.586c-.654 3.891-1.308 6.164-2.826 9.881-.992 2.448-2.215 4.066-2.553 3.323-.127-.219.401-3.673 1.35-8.832l1.54-8.395-.57.044c-.295.044-1.455.306-2.531.656zm13.902.13c-2.068.875-2.658 1.268-1.962 1.312.801.087 1.118.525 1.118 1.749 0 .656-.57 4.678-1.266 9.006-.696 4.329-1.265 8.001-1.265 8.176 0 .175.696.35 1.539.35h1.519l.485-2.973c1.097-6.427 3.017-13.204 3.776-13.204.169 0 .507.481.739 1.093.527 1.356.886 1.399 1.54 0 .717-1.443.759-5.159.084-5.902-1.097-1.224-2.531 1.137-4.198 6.908-.485 1.749-.928 3.148-.97 3.148-.063 0 .928-5.815 1.582-9.313.211-1.137.19-1.18-.359-1.137-.316.044-1.371.394-2.362.787zm14.028-.218c-2.637 1.399-5.063 5.159-6.16 9.575-.443 1.792-.57 2.885-.591 5.246 0 2.886.021 3.061.76 4.46 1.708 3.235 5.569 2.273 8.058-2.011.422-.744.738-1.487.675-1.662-.042-.218-.717.306-1.498 1.137-.949.962-1.687 1.443-2.341 1.443-1.034 0-2.046-.918-2.257-1.968-.232-1.311-.148-4.153.147-4.153.127-.044.971-.306 1.857-.612 2.004-.744 3.438-2.274 4.577-4.81.718-1.617.886-2.317.886-3.672 0-2.318-.548-3.279-1.962-3.411-.59-.087-1.561.088-2.151.438zm1.139 1.749c.738 1.88-1.118 7.388-2.848 8.482-.949.568-1.561.699-1.561.262 0-.131.338-1.618.759-3.279 1.224-4.766 2.912-7.302 3.65-5.465z" fill="#000"/></svg>