<svg width="289" height="289" fill="none" xmlns="http://www.w3.org/2000/svg"><path d="M148.293 49.042c-8.056 3.145-15.245 22.332-19.146 51.073-1.879 13.932-2.095 17.157-2.168 32.88l-.072 14.968-2.709 3.742c-3.54 4.936-9.609 11.265-13.15 13.853-4.913 3.542-10.476 5.374-14.016 4.657-.723-.159-1.879-.836-2.565-1.473-1.553-1.513-2.71-5.294-2.71-8.917v-2.468l3.18-1.791c5.057-2.826 8.308-5.414 12.21-9.673 4.19-4.578 6.358-8.28 7.442-12.659 1.336-5.493.252-10.867-2.963-14.768-2.673-3.185-5.671-3.822-9.248-1.991-1.95.996-5.49 5.016-7.55 8.479-4.154 7.046-7.875 18.351-8.706 26.193-.217 2.468-.253 2.508-1.553 2.906-3.18.916-4.697 1.195-7.009 1.195-2.131 0-2.564.119-3.323.995-1.156 1.234-1.156 2.348 0 3.582.759.836 1.192.996 3.215.996 1.264 0 3.612-.279 5.166-.598 1.553-.318 2.854-.597 2.926-.597.036 0 .072.597.072 1.354 0 2.149 1.012 6.847 1.843 8.678 1.047 2.309 3.612 5.175 5.49 6.21 3.396 1.871 6.792 1.99 12.103.438 6.719-1.951 15.28-8.479 21.422-16.361 1.264-1.632 2.203-2.548 2.312-2.229.072.278.325 1.393.542 2.507.614 3.105 2.167 7.325 3.648 9.992 3.938 6.847 9.898 8.001 16.473 3.105 2.746-2.03 10.404-10.429 12.391-13.614.867-1.354 1.626-2.428 1.662-2.349.18.199-1.879 6.887-3.829 12.42-1.373 3.941-1.482 4.498-1.12 5.852.578 2.03 2.239 3.503 4.046 3.503 1.914 0 3.359-.876 4.046-2.468.469-1.155 2.781-13.415 4.443-23.725.325-2.07.723-3.583.867-3.384.108.159.542 1.194.903 2.309 1.048 3.185 4.082 9.673 5.961 12.738 3.323 5.414 7.658 8.997 11.596 9.594 3.215.477 8.056-1.115 12.066-4.021 3.179-2.269 8.345-8.2 10.946-12.539 2.384-3.981 2.637-5.056 1.589-6.091-1.264-1.273-1.951-.875-4.299 2.508-2.059 3.026-7.08 8.32-9.537 10.111-2.637 1.911-6.502 3.424-8.85 3.424-1.518 0-2.204-.239-3.613-1.314-4.335-3.184-8.923-13.136-12.355-26.83l-.722-2.866 1.3-.916c5.564-3.702 11.994-11.623 17.051-21.018 3.432-6.329 9.032-19.665 9.032-21.456 0-.995-1.482-2.826-2.312-2.826-1.301 0-1.879.876-4.155 6.13-5.997 13.853-13.366 25.039-20.158 30.532-1.878 1.473-1.878 1.593-.83-4.856.903-5.454 2.239-16.043 3.251-25.238 1.047-9.434 2.42-20.142 3.07-23.884.723-4.18.687-4.3-.397-5.772-.867-1.115-1.156-1.234-2.601-1.115-1.409.12-1.806.319-2.456 1.393-.867 1.433-.759.359-2.674 23.805-.794 9.633-1.625 18.948-1.842 20.7-2.709 23.168-7.911 37.657-17.412 48.604-5.744 6.648-10.44 10.072-13.041 9.554-3.071-.637-5.636-6.807-6.9-16.639l-.542-4.26 1.553-2.508c1.481-2.428 2.384-4.02 4.877-8.638 2.565-4.816 8.128-17.435 10.368-23.566 4.516-12.3 7.947-24.998 9.573-35.388.975-6.21 1.337-15.206.759-18.869-.903-5.652-2.999-9.553-5.961-11.026-1.662-.836-5.13-.956-6.9-.279zm4.444 8.08c1.192 1.633 1.697 4.778 1.625 9.953-.108 11.982-4.479 30.611-11.343 48.485-3.143 8.16-8.67 20.182-9.284 20.182-.614 0 .686-20.063 2.095-31.647 2.782-23.128 9.212-44.265 14.45-47.41 1.301-.756 1.662-.677 2.457.438zm-45.193 65.563c3.179 3.862 2.71 9.594-1.264 15.525-1.879 2.826-5.636 6.608-8.85 8.996-2.385 1.792-4.697 3.265-5.058 3.265-.253 0 1.409-7.444 2.203-9.992 2.565-8.041 6.394-15.166 9.573-17.754 1.409-1.154 2.457-1.154 3.396-.04zm10.946 69.822c-4.046.876-6.755 2.946-7.839 6.051-.759 2.189-.831 6.727-.145 8.956.615 1.951 2.312 4.1 3.974 5.056 2.999 1.672 10.838 1.99 14.992.637 3.938-1.314 5.997-4.618 5.997-9.753 0-3.702-.506-5.613-2.059-7.564-1.843-2.428-4.335-3.304-9.682-3.463-2.384-.04-4.732 0-5.238.08zm6.972 3.344c4.769.756 6.033 2.308 6.033 7.364 0 3.941-.65 5.255-3.107 6.568-1.481.796-2.276.956-5.527.916-4.046 0-6.358-.677-7.694-2.349-1.518-1.871-1.626-7.921-.217-9.912 1.011-1.393 2.673-2.269 4.985-2.587 2.854-.438 2.854-.438 5.527 0zm-50.683 7.364v10.151h4.01l-.073-4.896-.036-4.857h15.787l.108 4.857.109 4.896h3.576v-20.301h-3.793l.108 3.383.109 3.384H78.572l.108-3.384.109-3.383h-4.01v10.15zm72.539.001l.108 10.15h3.215l.073-8.041.108-8.08 5.455 7.961 5.419 7.961 1.661.12 1.626.119 5.383-7.961c2.962-4.379 5.454-7.962 5.563-8.001.108 0 .144 3.582.072 7.961l-.108 7.961h3.648v-20.301h-5.382l-5.311 7.802c-4.299 6.329-5.382 7.683-5.744 7.245-.216-.279-2.275-3.224-4.515-6.489-6.611-9.633-5.527-8.558-8.67-8.558h-2.71l.109 10.151zm44.686-.001v10.151h22.217v-3.582h-18.46l.109-2.707.108-2.667 8.67-.08 8.67-.08.109-1.393.108-1.433h-17.737v-5.175h18.062v-3.184h-21.856v10.15zM60.112 232.434c-3.324 2.229-1.915 8.001 1.987 8.081 2.095.04 3.36-1.274 3.215-3.264-.108-1.354-.144-1.394-1.626-1.394-1.842 0-2.276.757-.541.916.939.119 1.155.279 1.155 1.075 0 1.95-2.745 2.428-4.154.756-2.348-2.787.145-6.966 3.251-5.533 1.012.438 1.265.438 1.265.04 0-.597-1.517-1.433-2.637-1.433-.434 0-1.3.358-1.915.756zm39.051-.239c-1.3.677-1.987 2.11-1.987 4.299 0 3.344 3.396 5.175 6.033 3.264.65-.477.831-.955.831-2.348v-1.752h-1.626c-1.192 0-1.625.159-1.625.597 0 .398.397.597 1.264.597.976 0 1.265.16 1.265.717 0 1.075-1.156 2.07-2.421 2.07-.831 0-1.409-.358-2.059-1.234-1.12-1.433-1.192-2.508-.253-4.18.867-1.552 2.204-1.99 3.649-1.154 1.084.637 1.806.199.939-.558-.795-.756-2.818-.875-4.01-.318zm119.899.239c-3.034 2.03-2.204 7.125 1.264 8.12.867.239 3.649-.756 3.649-1.273 0-.677-.506-.757-1.228-.239-1.879 1.473-4.552-.08-4.552-2.667 0-2.707 2.095-4.419 4.082-3.304 1.337.716 1.337.716 1.337.079s-1.517-1.473-2.637-1.473c-.434 0-1.301.359-1.915.757zm8.706-.239c-1.3.677-1.987 2.11-1.987 4.26 0 2.746 2.385 4.657 4.913 3.94 1.77-.557 2.493-1.711 2.493-4.179 0-1.752-.145-2.309-.939-3.145-1.084-1.234-2.999-1.592-4.48-.876zm3.071.876c1.12.637 1.987 2.786 1.589 4.02-.794 2.429-3.215 3.304-4.768 1.752-1.662-1.712-1.481-4.339.397-5.573 1.373-.955 1.445-.955 2.782-.199zm-183.515 3.184v4.18h2.492c1.41 0 2.637-.199 2.746-.399.144-.238-.614-.398-1.95-.398h-2.205v-3.781c0-3.105-.108-3.782-.541-3.782-.434 0-.542.717-.542 4.18zm7.478-.12c.036 2.508.216 4.14.433 4.22.253.08.398-1.234.398-4.06 0-3.105-.109-4.22-.434-4.22-.361 0-.47 1.035-.397 4.06zm13.113.12c0 3.463.108 4.18.542 4.18.397 0 .542-.478.542-1.991v-2.03l2.059.119 2.059.12-.108 1.871c-.073 1.512.036 1.911.47 1.911.505 0 .577-.637.577-4.18 0-3.463-.108-4.18-.542-4.18-.397 0-.541.478-.541 1.791v1.792h-3.974v-1.792c0-1.313-.145-1.791-.542-1.791-.434 0-.542.717-.542 4.18zm8.309-3.782c0 .199.578.398 1.264.398h1.264v3.782c0 3.105.109 3.782.542 3.782.434 0 .542-.677.542-3.782v-3.782h1.084c.614 0 1.084-.199 1.084-.398 0-.239-1.192-.398-2.89-.398-1.698 0-2.89.159-2.89.398zm7.947 3.782c0 3.463.109 4.18.542 4.18.434 0 .542-.717.542-4.18 0-3.463-.108-4.18-.542-4.18-.433 0-.542.717-.542 4.18zm3.974 0c0 3.383.108 4.18.542 4.18.397 0 .542-.717.614-3.304l.108-3.265 2.096 3.265c1.156 1.831 2.348 3.304 2.637 3.304.397 0 .505-.836.505-4.18 0-3.463-.108-4.18-.541-4.18-.434 0-.542.637-.542 3.264v3.304l-2.06-3.304c-1.3-2.03-2.311-3.264-2.709-3.264-.578 0-.65.398-.65 4.18zm31.067 0c0 3.463.109 4.18.542 4.18.398 0 .542-.478.542-1.991v-1.99h1.806c1.012 0 1.807-.199 1.807-.398 0-.239-.795-.398-1.807-.398h-1.806v-2.787h2.168c1.192 0 2.167-.159 2.167-.398 0-.239-1.156-.398-2.709-.398h-2.71v4.18zm7.587-.955c0 3.702.289 4.498 1.806 5.055 1.3.518 3.107-.04 3.612-1.114.542-1.115.47-7.166-.072-7.166-.361 0-.433.757-.361 2.667.108 3.265-.434 4.658-1.879 4.817-1.806.239-2.384-.796-2.384-4.379 0-1.791-.144-3.105-.361-3.105s-.361 1.354-.361 3.225zm8.67.955c0 3.463.108 4.18.542 4.18.397 0 .541-.478.541-1.792 0-1.512.109-1.791.723-1.791.397 0 1.12.716 1.806 1.791.614.995 1.373 1.792 1.662 1.792.397 0 .253-.478-.542-1.752l-1.12-1.751.903-.637c.614-.438.903-1.035.903-1.832 0-1.791-.83-2.388-3.287-2.388h-2.131v4.18zm4.479-2.468c.325.597.253.876-.469 1.512-.47.399-1.301.757-1.879.757-.975 0-1.048-.12-1.048-1.632v-1.593l1.482.12c.975.079 1.661.358 1.914.836zm3.468 2.468c0 3.383.109 4.18.542 4.18.398 0 .542-.717.614-3.265l.109-3.304 2.095 3.304c2.818 4.419 3.143 4.339 3.143-.915 0-3.463-.109-4.18-.542-4.18-.434 0-.542.597-.542 3.025 0 3.583-.181 3.543-2.529-.477-.975-1.632-1.77-2.548-2.203-2.548-.614 0-.687.358-.687 4.18zm9.393.04c0 2.826.144 4.14.397 4.06.578-.199.65-8.28.072-8.28-.361 0-.469 1.115-.469 4.22zm3.251-3.822c0 .199.578.398 1.264.398h1.265v3.782c0 2.269.144 3.782.361 3.782s.361-1.513.361-3.782v-3.782h1.265c.686 0 1.264-.199 1.264-.398 0-.239-1.192-.398-2.89-.398-1.698 0-2.89.159-2.89.398zm7.948 2.906c0 2.986.072 3.424.867 4.22 1.264 1.313 3.359 1.234 4.443-.16.722-.875.831-1.472.831-4.219 0-2.548-.109-3.145-.542-3.145-.434 0-.542.597-.542 3.145 0 3.543-.433 4.418-2.131 4.418-1.554 0-1.843-.636-1.843-4.259 0-2.667-.108-3.304-.542-3.304-.433 0-.541.637-.541 3.304zm8.922.756c.036 2.508.217 4.14.434 4.22.253.08.397-.557.397-1.672 0-1.672.072-1.831.903-1.831.651 0 1.12.438 1.843 1.791.505.995 1.156 1.792 1.445 1.792.578 0 .686-.637.144-.996-.217-.119-.614-.796-.939-1.433-.542-1.154-.506-1.234.361-1.99 1.084-.916 1.192-1.791.361-3.065-.469-.757-.867-.876-2.781-.876h-2.24l.072 4.06zm4.082-2.667c.687.916.253 1.951-.975 2.309-1.662.557-2.276.159-2.276-1.513 0-1.353.036-1.393 1.409-1.393.759 0 1.59.239 1.842.597zm3.974 2.787v4.18h2.71c3.287 0 3.648-.717.469-.876l-2.276-.12v-2.786l1.915-.12c2.493-.159 2.42-.875-.108-.875h-1.987v-2.787h2.167c1.192 0 2.168-.159 2.168-.398 0-.239-1.084-.398-2.529-.398h-2.529v4.18zm20.23 0v4.18h1.734c2.24 0 3.36-.677 4.155-2.508.614-1.314.614-1.672.18-3.145-.578-2.07-1.589-2.707-4.154-2.707h-1.915v4.18zm4.516-2.389c2.023 2.19.469 5.772-2.493 5.772-.939 0-.939 0-.939-3.383v-3.384h1.264c.903 0 1.59.319 2.168.995zm4.154 2.389v4.18h2.71c1.553 0 2.709-.16 2.709-.399 0-.238-.975-.398-2.204-.398h-2.167l.108-1.512.109-1.473 1.914-.12c2.493-.159 2.421-.875-.108-.875h-1.987v-2.787h2.167c1.193 0 2.168-.159 2.168-.398 0-.239-1.156-.398-2.709-.398h-2.71v4.18zm26.01 0c0 3.463.109 4.18.542 4.18.398 0 .542-.478.542-1.792 0-1.512.108-1.791.686-1.791.434 0 1.12.677 1.734 1.672.578.955 1.337 1.751 1.698 1.831.542.119.47-.159-.469-1.632l-1.12-1.791.903-.637c.614-.438.903-1.035.903-1.832 0-1.791-.831-2.388-3.287-2.388h-2.132v4.18zm4.371-2.508c.362.716.289.955-.397 1.592-.433.398-1.264.717-1.842.717-.976 0-1.048-.12-1.048-1.593 0-1.592 0-1.592 1.445-1.592 1.084 0 1.517.199 1.842.876zm-129.58 2.11c-.145.359-.072.836.144 1.075.542.597 1.59.04 1.445-.756-.144-.916-1.3-1.155-1.589-.319zm81.931-.119c-.541.716.037 1.632.867 1.433.831-.16.94-1.633.109-1.832-.325-.039-.759.12-.976.399z" fill="#000"/></svg>