<svg width="289" height="289" fill="none" xmlns="http://www.w3.org/2000/svg"><path d="M144.058 80.478c-.177.147-1.121.796-2.124 1.415-2.978 1.828-17.428 10.94-20.878 13.153a85.82 85.82 0 01-2.419 1.533c-.53.324-3.391 2.123-6.34 4.011-13.123 8.345-27.042 17.074-27.484 17.251-.266.089-.472.295-.472.442 0 .207 2.713 4.778 3.126 5.22.118.148 1.563-.708 4.512-2.624 1.386-.915 2.624-1.622 2.772-1.534.118.059.206 10.793.206 23.857v23.71h99.086v-23.739c0-17.871.088-23.739.354-23.739.177 0 1.769.914 3.539 2.064 1.769 1.12 3.302 2.064 3.42 2.064.118 0 .472-.442.767-.973a53.484 53.484 0 011.622-2.507l1.032-1.592-.708-.531c-.412-.324-2.89-1.917-5.544-3.598-2.654-1.681-5.337-3.362-5.986-3.774-.649-.413-3.922-2.478-7.284-4.601-19.139-12.12-25.273-15.983-26.541-16.78a780.922 780.922 0 01-8.611-5.455c-2.831-1.799-5.632-3.539-5.691-3.539-.059 0-.207.118-.354.266zm13.005 15.157a4807.078 4807.078 0 0117.369 10.97c2.772 1.77 6.901 4.394 9.23 5.869l4.188 2.654v45.296h-13.27v-1.474c0-1.268-.089-1.475-.59-1.475-.59 0-.59-.147-.531-12.031l.088-12.003 4.217-.088c3.185-.059 4.218-.177 4.129-.443-.088-.206-.855-2.654-1.71-5.455l-1.593-5.072-5.898.058-5.898.089-.501 1.622a435.57 435.57 0 01-1.563 5.013c-.59 1.858-1.062 3.568-1.062 3.745 0 .266 1.121.384 4.217.443 2.301.059 4.158.177 4.129.295-.059.147-.088 5.514-.088 12.002 0 11.501 0 11.766-.59 11.914-.472.118-.59.413-.59 1.504v1.356h-15.01l-.502-2.3c-.56-2.654-.855-3.303-1.445-3.303-.56 0-.56.03.295 2.802.413 1.297.737 2.447.737 2.565 0 .148-2.064.236-4.57.236-2.507 0-4.571-.029-4.571-.088s.383-1.239.855-2.654c.855-2.477.826-3.126-.089-2.772-.236.088-.619 1.297-.943 2.831l-.531 2.683h-7.55v-7.048l-1.238.059-1.268.089-.089 2.713c-.088 2.565-.029 2.772.649 3.45l.737.737h-23.238l.738-.737c.678-.678.737-.885.648-3.45l-.088-2.743-1.239-.088-1.268-.089v7.107H101.15V115.04l5.308-3.333c2.92-1.828 6.812-4.305 8.641-5.455 1.799-1.18 3.509-2.242 3.745-2.36.236-.118 1.592-.943 3.008-1.828 4.954-3.185 8.11-5.22 13.949-8.876 3.243-2.035 6.428-4.07 7.077-4.512.649-.443 1.327-.797 1.504-.797.206 0 5.898 3.51 12.681 7.756zm21.822 31.908c.708 2.094 1.268 4.011 1.268 4.188.03.295-1.651.383-7.52.383-6.163 0-7.52-.059-7.402-.383.089-.236.649-2.035 1.268-4.07.62-2.005 1.268-3.745 1.445-3.863.148-.147 2.419-.206 5.014-.147l4.689.059 1.238 3.833z" fill="#000"/><path d="M143.91 95.4c0 5.957 0 6.016-.649 6.37-.914.472-1.71 1.474-1.71 2.182 0 .561.177.59 2.949.59 2.094 0 2.949-.088 2.949-.354 0-.767-.678-1.769-1.504-2.271l-.855-.501v-6.045c0-5.81-.03-6.016-.59-6.016-.56 0-.59.206-.59 6.045zm-2.094 10.263c-1.916.53-3.892 1.769-5.101 3.184-1.062 1.269-2.271 3.51-2.065 3.864.177.265 19.523.295 19.67 0 .236-.384-1.003-2.654-2.182-4.011-2.389-2.684-6.842-4.011-10.322-3.037zm-.678 9.023c.561.944 2.094 1.799 3.244 1.799.973 0 2.772-.766 3.244-1.415.855-1.121.59-1.239-3.303-1.239h-3.686l.501.855zm16.485 21.174c-.442.443-.973 1.18-1.209 1.652-.826 1.592-1.593 5.927-1.769 10.292l-.207 4.364h-4.63c-4.394 0-4.659.03-4.807.59-.088.383 0 .59.266.59.236 0 .413.265.413.59 0 .56.206.589 4.718.589 4.04 0 4.718-.059 4.718-.442 0-.265.207-.531.443-.619.354-.148.413-.531.265-2.006-.206-1.975.324-8.67.826-10.793.383-1.622 1.622-4.128 2.005-4.128.354 0 .383-1.092.03-1.298-.148-.088-.62.206-1.062.619zm-52.639 9.79c0 .295.354.885.766 1.327l.797.767h17.87c16.22 0 17.96-.059 18.609-.501.412-.266.766-.502.796-.502.029-.029.118-.383.236-.855l.206-.796h-19.64c-18.962 0-19.64.03-19.64.56zm5.898 5.044v2.064h27.13v-4.129h-27.13v2.065zm92.273 27.13c-3.598.648-6.252 2.595-7.756 5.691-1.651 3.332-2.064 7.373-1.209 11.472.826 3.833 2.33 6.016 5.161 7.461 2.595 1.327 8.169 1.533 11.088.442 2.92-1.121 5.19-3.568 6.37-6.842.56-1.592.649-2.447.649-5.839 0-3.037-.148-4.335-.531-5.455-1.15-3.274-3.037-5.279-5.986-6.429-1.445-.56-5.869-.855-7.786-.501zm5.721 4.629c1.209.62 1.917 1.416 2.654 3.038.856 1.799.915 7.343.118 9.643-1.002 2.861-2.978 4.217-6.163 4.217-4.07 0-5.839-2.094-6.311-7.372-.324-3.981.796-7.697 2.772-9.113 1.77-1.268 4.925-1.445 6.93-.413zM38.278 178.03c-.295.059-.531.354-.531.619-.089 11.737.059 24.123.265 24.33.325.324 3.893.412 4.394.088.266-.147.354-3.214.354-12.415 0-11.767-.03-12.238-.56-12.533-.56-.295-2.95-.354-3.922-.089zm35.152.059l-.738.206-.147 8.788-.148 8.788-2.123-4.217c-3.332-6.635-6.428-12.356-6.989-12.887-.737-.737-5.78-.914-6.458-.206-.472.442-.501 1.592-.442 12.474l.088 12.002h4.129l.088-9.584.089-9.584 2.152 4.276a607.84 607.84 0 003.539 6.782 424.8 424.8 0 012.3 4.394c.531 1.062 1.386 2.33 1.888 2.89.884.944 1.002.974 3.155.974 1.622 0 2.36-.118 2.684-.472.412-.384.471-1.947.471-12.533 0-11.59-.03-12.062-.56-12.062-.295 0-.914-.059-1.386-.118-.472-.088-1.18-.029-1.592.089zm103.804 0l-.738.206-.088 12.298-.059 12.297.678.147c.354.118 1.475.148 2.418.089l1.77-.089.088-12.326.059-12.298-.766-.295c-.826-.324-2.242-.353-3.362-.029zm-88.854.236c-.353.324-.235 3.185.148 3.568.236.236 1.445.354 3.54.354h3.184l.059 10.38.088 10.41h4.719l.088-10.41.059-10.38h3.215c3.774 0 3.951-.118 3.804-2.418l-.089-1.563-9.318-.089c-5.102-.029-9.378.03-9.496.148zm30.464.089c-.383.236-.442 1.917-.442 12.238 0 10.322.059 12.003.442 12.239.265.177 3.332.265 7.372.206l6.93-.059.089-1.15c.059-.649.029-1.475-.059-1.858-.177-.678-.206-.678-4.895-.678h-4.719v-7.373h3.952c4.364 0 4.305.03 4.305-2.034 0-.59-.147-1.239-.353-1.445-.236-.236-1.563-.354-4.07-.354-2.064 0-3.804-.059-3.863-.118-.059-.059-.089-1.475-.03-3.097l.089-2.978h9.112l.324-.796c.148-.443.207-1.298.118-1.917l-.206-1.121h-6.812c-3.804 0-7.048.148-7.284.295zm27.278.354c-.089.383-.118 5.986-.089 12.474l.089 11.796 1.769.088c3.303.177 3.097.501 3.097-5.249v-5.013h1.032c1.622 0 2.978.707 3.775 1.975.383.62 1.268 2.566 1.975 4.365.679 1.769 1.386 3.421 1.563 3.598.413.56 4.896.531 5.102 0 .354-.973-3.391-9.054-4.777-10.351-1.15-1.032-1.239-1.357-.443-1.357.295 0 1.121-.531 1.858-1.179 1.593-1.386 2.124-2.949 1.947-5.692-.148-2.595-1.092-3.981-3.392-5.131-1.681-.796-1.828-.826-7.52-.914l-5.809-.089-.177.679zm10.351 3.745c1.858 1.12 1.976 4.01.265 5.632-.619.59-1.12.708-3.244.826l-2.506.147v-7.166h2.3c1.71 0 2.507.148 3.185.561zm73.901-4.011c-.265.325-.354 3.48-.295 12.475l.089 12.031 1.12.266c.679.177 1.652.177 2.36.029l1.238-.265.148-5.013.147-5.014.914-.088c1.445-.148 2.949.649 3.716 1.917.383.619 1.298 2.565 1.976 4.364.708 1.77 1.415 3.392 1.563 3.598.383.501 2.595.767 4.069.531l1.239-.207-.177-1.209c-.118-.678-.295-1.356-.442-1.533-.118-.148-.797-1.681-1.504-3.362-.855-2.005-1.652-3.45-2.418-4.247-1.298-1.386-1.357-1.562-.443-1.798.914-.236 2.418-1.622 3.008-2.802 1.239-2.477.737-6.163-1.12-7.903-1.976-1.888-2.448-2.005-8.936-2.094-4.866-.088-5.957-.029-6.252.324zm9.82 3.864c1.298.56 2.035 1.946 1.829 3.509-.295 2.182-2.123 3.273-5.22 3.096l-1.622-.088-.088-3.48-.089-3.45h2.094c1.15 0 2.536.177 3.096.413zM86.906 212.209c-.324.324-.236 12.533.089 13.653.737 2.655 2.949 4.159 6.016 4.159 2.566 0 4.512-1.062 5.573-3.038.62-1.18.65-1.563.65-8.021v-6.783h-1.475l-.148 6.93c-.177 7.697-.236 8.051-2.212 8.965-1.09.531-3.273.619-4.364.207-.885-.354-1.917-1.386-2.36-2.389-.176-.413-.382-3.539-.471-7.225-.147-5.544-.236-6.488-.62-6.576-.265-.03-.56 0-.678.118zm48.246.029c-.295.118-.384 1.858-.384 7.49 0 4.689-.118 7.343-.295 7.343-.147 0-.294-.118-.294-.236s-.708-1.474-1.593-3.008c-.855-1.533-2.683-4.777-4.01-7.166l-2.478-4.364-1.179.088-1.209.089-.089 8.611c-.059 8.522-.059 8.611.561 8.788.324.118.737.088.884-.059.148-.148.295-3.716.325-7.903.059-5.102.177-7.461.354-7.078.324.678 5.544 9.938 7.283 12.887 1.151 1.976 1.829 2.477 2.743 2.123.413-.147.472-1.091.472-8.817 0-8.818-.03-9.142-1.091-8.788zm8.67.001c-.118.088-.207 4.069-.207 8.847 0 7.461.059 8.67.443 8.817.236.118.648.03.884-.177.384-.324.443-1.71.443-8.847 0-7.461-.059-8.522-.472-8.67-.59-.236-.855-.236-1.091.03zm24.388.206c-.089.265-.118 3.362-.059 6.9.147 7.461.354 8.258 2.801 9.821 2.537 1.592 6.577 1.032 8.434-1.18 1.239-1.475 1.416-2.713 1.328-9.525-.089-6.193-.089-6.282-.738-6.37-.649-.089-.649-.089-.737 6.635-.088 7.461-.236 8.11-2.094 9.23-1.356.856-3.922.797-5.249-.088-1.74-1.18-1.858-1.71-2.035-9.053-.147-6.606-.147-6.636-.825-6.724-.384-.059-.738.088-.826.354zm-96.49 8.64c.088 8.316.117 8.788.648 8.877.295.059.649-.059.796-.295.148-.207.266-2.065.266-4.158v-3.746h6.782v-1.504l-3.244.059c-1.799.03-3.332-.029-3.42-.118-.089-.059-.177-1.533-.207-3.273-.059-2.359.03-3.155.325-3.273.235-.089 1.857-.148 3.627-.148 3.008 0 3.214-.029 3.214-.59 0-.56-.206-.589-4.423-.589H71.66l.06 8.758zm35.033-7.814c-.029.855 0 15.895 0 16.543 0 .148.295.207.678.148.62-.089.649-.177.738-4.158l.088-4.04h1.799c1.651 0 1.858.088 2.684.943.501.561 1.445 2.33 2.123 4.07 1.091 2.713 1.327 3.096 1.946 3.096.56 0 .678-.147.649-.678-.148-1.239-2.507-6.547-3.214-7.225-.915-.855-.885-.973.176-1.533 2.035-1.062 2.714-4.1 1.386-6.075-1.091-1.622-2.241-2.035-5.868-2.035h-3.185v.944zm4.659.442c2.743.324 3.952 2.182 3.008 4.659-.412 1.091-2.536 1.976-4.511 1.858l-1.534-.088-.088-2.92c-.03-1.622 0-3.126.059-3.332.176-.443.766-.472 3.066-.177zm38.809-1.062c-.354.619.354.826 2.979.914l2.654.089.147 8.109c.147 7.874.177 8.11.737 8.11.561 0 .59-.236.679-7.962.059-5.898.176-7.992.442-8.169.177-.118 1.415-.236 2.742-.236 2.507 0 2.831-.088 2.566-.767-.118-.324-1.327-.412-6.429-.412-4.217 0-6.37.118-6.517.324zm37.924 8.346c0 7.668.059 8.759.472 8.936.914.353 1.15-.472 1.238-4.335l.118-3.834h1.563c2.33 0 3.303.944 4.719 4.63.589 1.592 1.238 3.067 1.386 3.244.412.501 1.091.472 1.297-.03.266-.678-2.212-6.576-3.185-7.608-.56-.59-.737-1.003-.531-1.062.207-.088.797-.531 1.357-1.002 1.946-1.74 1.946-4.512-.03-6.429l-1.061-1.032-3.686-.118-3.657-.089v8.729zm6.871-6.635c1.651.944 1.563 3.863-.177 5.161-.944.678-4.925 1.091-4.925.501-.029-.177-.029-1.592-.029-3.126 0-1.533 0-2.949.029-3.126 0-.442 4.099 0 5.102.59zm10.233 6.664v8.7h4.718c4.512 0 4.719-.03 4.719-.59 0-.531-.236-.59-3.893-.649l-3.922-.088v-7.078l3.332-.088c3.038-.059 3.303-.118 3.303-.649s-.265-.59-3.303-.649l-3.332-.088v-6.193l3.775-.089c3.509-.059 3.745-.118 3.745-.649 0-.56-.207-.589-4.571-.589h-4.571v8.699z" fill="#000"/></svg>