<svg width="289" height="289" fill="none" xmlns="http://www.w3.org/2000/svg"><path d="M82.654 11.836c-1.373 3.075-5.635 21.829-6.43 28.593-.434 3.382-2.023 5.841-7.876 12.759-11.415 13.528-16.039 20.445-25.36 38.43-14.666 28.286-15.605 31.36-18.206 56.725-1.3 13.374-.867 23.519 1.517 32.589 2.312 8.609 2.673 7.225-8.814 30.591-4.769 9.685-8.96 19.062-9.176 20.753-.65 4.304 1.156 8.147 3.107 6.917.794-.615 3.684-4.765 6.43-9.377 2.673-4.612 5.057-7.686 5.13-6.917.216 1.076 43.133 1.537 123.764 1.537 122.969 0 123.475 0 123.475-3.075 0-3.074-.506-3.074-122.897-3.074H24.348l2.818-6.61c1.59-3.536 3.613-8.763 4.624-11.376 1.734-4.765 2.023-4.919 4.335-3.535 8.815 5.38 22.614-3.382 33.452-21.061 3.901-6.456 12.138-27.823 17.05-44.426 2.53-8.147 2.963-17.37 1.157-21.213-1.806-3.69-6.72-5.842-11.994-5.227l-4.768.461-7.514 13.835c-4.119 7.533-9.104 16.449-11.127 19.831-1.95 3.381-6.575 12.144-10.26 19.676-3.684 7.379-6.935 13.528-7.369 13.528-1.156 0-2.456-10.915-2.529-20.753-.072-7.379.362-10.914 2.096-17.678 3.684-14.296 20.374-47.193 33.524-65.947l6.43-9.224.434 10.453c.65 13.374 2.89 23.059 6.213 26.748 2.023 2.306 3.612 2.614 7.875 1.999 10.188-1.384 19.291-15.373 24.348-37.201 2.168-9.224 2.674-13.067 2.963-23.981.289-11.068.144-13.374-1.229-17.832-3.829-13.067-13.51-11.99-25.142 2.613-2.096 2.613-3.974 4.766-4.119 4.766-.216 0 .217-2.921.867-6.303 1.156-6.149 1.084-6.61-.144-8.455-1.734-2.767-2.168-2.767-3.685.461zm26.949 18.447c3.251 16.756-2.529 39.2-12.932 50.421-3.758 3.997-6.07 5.38-8.598 5.38-4.335 0-5.491-3.074-6.647-17.524-.65-8.608-.65-10.914.361-15.218 1.95-8.609 11.704-20.6 21.53-26.595 4.769-2.767 5.058-2.613 6.286 3.536zm-25.793 87.93c0 .769-.506 2.306-1.156 3.382-.65 1.23-3.179 7.686-5.563 14.45-10.188 28.592-16.473 39.968-25.866 46.732-4.552 3.228-12.21 4.458-12.21 1.844 0-2.152 14.739-31.513 23.048-45.809 4.19-7.225 9.609-15.065 11.993-17.525 4.118-4.304 9.754-5.995 9.754-3.074z" fill="#000"/><path d="M157.866 13.681c-6.213 3.382-19.507 22.597-27.455 39.353-10.476 22.29-28.466 64.41-32.585 76.093-6.069 17.217-8.164 21.522-13.149 26.287-5.708 5.534-8.815 10.146-8.815 13.067 0 3.074 1.157 2.767 6.142-1.691 5.852-5.073 6.141-5.073 5.346 1.844-.361 3.228-.65 8.762-.65 12.298 0 10.914 2.745 14.296 11.56 14.296 7.369 0 13.438-4.15 19.796-13.527l4.986-7.225 2.023 4.15c1.734 3.69 2.528 4.305 6.358 4.305 3.973 0 4.696-.615 9.175-7.072l4.913-7.225 3.252 2.614c6.358 4.765 10.765 2.459 19.218-10.454 1.951-3.074 3.829-5.534 4.118-5.534.867 0 .723 12.606-.144 17.986-.578 3.536-1.879 5.534-5.708 9.531-11.632 11.836-12.788 28.131-1.589 21.675 2.023-1.076 3.901-3.997 6.358-9.839 2.095-5.072 4.335-8.762 5.635-9.377 2.095-1.076 8.453-9.069 18.424-23.366 2.601-3.535 4.985-6.61 5.274-6.61.723 0 .65 10.607-.217 16.91-.578 4.612-1.372 5.995-5.635 10.453-6.286 6.303-9.537 12.913-9.537 19.215v4.612l4.479-.922c4.913-.922 7.009-3.536 10.332-12.913 1.59-4.458 3.035-6.61 5.347-7.994 1.806-.922 5.202-4.765 7.658-8.454 2.457-3.69 6.214-8.301 8.381-10.454l3.902-3.843v7.84c0 7.072.144 7.84 1.734 8.301 2.023.615 11.487-8.916 13.438-13.527.939-2.152 1.084-3.69.578-4.766-.506-1.076-1.878-.461-4.407 2.306-7.442 7.994-7.731 4.612-.867-10.453 2.818-6.149 5.057-12.298 5.057-13.681 0-4.458-3.395-3.075-6.358 2.767-1.589 2.92-6.502 9.53-11.054 14.757-19.869 22.905-18.713 22.444-18.713 7.532 0-12.912 1.084-18.293 4.697-23.058 4.624-6.149 6.213-15.065 3.179-18.447-2.385-2.767-4.841-.461-7.009 6.61-3.973 13.067-16.617 35.972-23.553 42.735-5.13 4.92-5.491 4.458-5.491-7.84 0-12.605 1.228-18.908 4.263-22.289 4.84-5.227 6.719-16.295 3.323-19.523-2.456-2.306-4.985.307-6.575 6.764-1.372 5.534-11.198 25.825-15.678 32.281-3.323 4.92-4.985 5.381-6.575 1.845-1.806-3.843-1.372-7.379 2.096-16.448 1.806-4.766 3.251-9.992 3.251-11.683 0-4.766-2.89-5.534-6.358-1.845-2.529 2.767-3.035 2.767-4.191.922-3.829-6.149-9.031-1.076-19.074 18.601-2.962 5.841-8.236 14.757-11.704 19.677-5.202 7.532-7.297 9.53-12.138 11.836-6.286 2.767-9.176 2.152-11.632-2.613-1.951-3.843-1.662-9.07 1.011-18.293 1.734-6.149 3.252-9.07 6.214-12.452 16.111-17.985 35.185-49.652 55.56-92.541 6.43-13.528 10.91-34.434 8.67-40.583-1.084-3.075-5.78-4.612-8.887-2.921zm.217 19.984c1.517 1.998-.289 8.301-7.297 24.903-9.248 21.983-19.074 39.815-33.669 61.182-11.921 17.217-12.066 15.373-1.084-12.144 17.34-43.35 34.247-75.017 40.027-75.17.578-.154 1.517.46 2.023 1.23zm82.293 65.795c-.795 1.536-.578 14.449.289 21.213.939 7.379 2.529 11.529 4.479 11.529 1.229 0 1.301-.768.867-5.073-.65-6.456-.65-12.451 0-21.521l.578-7.225h-2.89c-1.589 0-3.106.461-3.323 1.076zm21.169 34.74c-11.849 8.609-23.12 33.051-23.12 49.96 0 9.685 1.734 11.837 9.682 11.837h6.574l9.032-9.685c13.149-14.142 20.157-24.903 16.111-24.903-.722 0-4.696 4.151-8.886 9.224-13.005 15.679-21.386 21.828-25.505 18.6-2.528-1.998-2.456-5.534.145-14.142 4.985-16.449 10.187-24.442 16.039-24.442 5.491 0 10.332-5.227 10.621-11.53.506-8.916-3.107-10.453-10.693-4.919zM36.847 255.949v20.753h5.058v-16.909h7.225v-10.761h-3.613c-2.745 0-3.612-.615-3.612-2.306 0-1.845.94-2.306 3.974-2.306 3.901 0 3.974 0 3.974-4.611v-4.612H36.846v20.752zm26.733-4.611c0 8.762.361 17.678.795 19.83 1.084 5.073 4.263 7.686 8.092 6.61 4.913-1.383 5.563-4.458 5.563-25.057v-17.524h-5.058v15.987c0 13.374-.216 16.141-1.155 16.91-2.457 1.998-3.18-1.845-3.18-17.679v-15.218H63.58v16.141zm29.623 4.612v20.753h5.057v-8.455c0-7.84.144-8.455 1.734-8.455 1.878 0 2.601 3.228 2.601 11.837 0 4.919.144 5.073 2.89 5.073 3.179 0 3.107 1.076 1.445-15.526-.289-3.229-.289-6.611.072-7.687 1.301-4.458.723-11.836-1.228-15.065-1.59-2.613-2.962-3.228-7.225-3.228h-5.347v20.753zm28.899-.001v20.753h5.058v-10.453l.072-10.3 2.529 10.3c2.312 9.838 2.601 10.453 4.985 10.453h2.529v-41.505h-4.335v11.837l-.072 11.99-2.89-11.99c-2.746-11.376-2.963-11.837-5.347-11.837h-2.529v20.752zm29.623 0v20.753h5.057v-41.505h-5.057v20.752zm18.063-16.14c0 4.304.216 4.611 2.528 4.611h2.529v32.282h5.058V244.42h2.528c2.312 0 2.529-.307 2.529-4.611v-4.612h-15.172v4.612zm28.321 12.912c.145 14.604.434 17.986 1.59 20.753 2.673 6.302 9.681 5.995 11.704-.615.723-2.46 1.229-9.224 1.518-20.599l.433-17.063h-5.274v10.299c0 14.143-.65 21.675-1.951 22.751-2.384 1.845-3.107-2.152-3.107-17.832v-15.218h-5.202l.289 17.524zm29.478 3.228v20.753h5.058v-8.455c0-7.84.144-8.454 1.734-8.454 2.023 0 2.601 2.459 2.601 10.914 0 5.995 0 5.995 2.818 5.995h2.817l-.361-6.61c-.144-3.536-.578-8.301-.939-10.453-.289-2.152-.289-4.919.072-6.149 1.156-3.843.723-11.991-.795-15.219-1.228-2.613-2.384-3.074-7.225-3.074h-5.78v20.752zm29.623 0v20.753h13.728v-9.223h-9.393v-9.224h8.67v-9.223h-4.335c-3.396 0-4.335-.461-4.335-2.306s1.012-2.306 4.696-2.306h4.697v-9.223H257.21v20.752z" fill="#000"/></svg>