<svg width="289" height="289" viewBox="0 0 289 289" fill="none" xmlns="http://www.w3.org/2000/svg">
<path d="M144.058 80.4775C143.881 80.625 142.937 81.2737 141.934 81.893C138.956 83.7214 124.506 92.8337 121.056 95.0455C120.259 95.5763 119.168 96.2546 118.637 96.5789C118.107 96.9033 115.246 98.7022 112.297 100.59C99.1742 108.935 85.255 117.664 84.8127 117.841C84.5472 117.93 84.3408 118.136 84.3408 118.283C84.3408 118.49 87.0539 123.061 87.4667 123.503C87.5847 123.651 89.0297 122.795 91.9787 120.879C93.3647 119.964 94.6033 119.257 94.7507 119.345C94.8687 119.404 94.9571 130.138 94.9571 143.202V166.912H144.5H194.043V143.173C194.043 125.302 194.131 119.434 194.397 119.434C194.574 119.434 196.166 120.348 197.936 121.498C199.705 122.618 201.238 123.562 201.356 123.562C201.474 123.562 201.828 123.12 202.123 122.589C202.418 122.088 203.155 120.938 203.745 120.082L204.777 118.49L204.069 117.959C203.657 117.635 201.179 116.042 198.525 114.361C195.871 112.68 193.188 110.999 192.539 110.587C191.89 110.174 188.617 108.109 185.255 105.986C166.116 93.8659 159.982 90.0027 158.714 89.2065C157.387 88.3808 152.698 85.4318 150.103 83.7509C147.272 81.952 144.471 80.2121 144.412 80.2121C144.353 80.2121 144.205 80.3301 144.058 80.4775ZM157.063 95.6353C163.875 99.9113 171.69 104.866 174.432 106.605C177.204 108.375 181.333 110.999 183.662 112.474L187.85 115.128V137.776V160.424H181.215H174.58V158.95C174.58 157.682 174.491 157.475 173.99 157.475C173.4 157.475 173.4 157.328 173.459 145.444L173.547 133.441L177.764 133.353C180.949 133.294 181.982 133.176 181.893 132.91C181.805 132.704 181.038 130.256 180.183 127.455L178.59 122.383L172.692 122.441L166.794 122.53L166.293 124.152C166.028 125.037 165.32 127.307 164.73 129.165C164.14 131.023 163.668 132.733 163.668 132.91C163.668 133.176 164.789 133.294 167.885 133.353C170.186 133.412 172.043 133.53 172.014 133.648C171.955 133.795 171.926 139.162 171.926 145.65C171.926 157.151 171.926 157.416 171.336 157.564C170.864 157.682 170.746 157.977 170.746 159.068V160.424H163.256H155.736L155.234 158.124C154.674 155.47 154.379 154.821 153.789 154.821C153.229 154.821 153.229 154.851 154.084 157.623C154.497 158.92 154.821 160.07 154.821 160.188C154.821 160.336 152.757 160.424 150.251 160.424C147.744 160.424 145.68 160.395 145.68 160.336C145.68 160.277 146.063 159.097 146.535 157.682C147.39 155.205 147.361 154.556 146.446 154.91C146.21 154.998 145.827 156.207 145.503 157.741L144.972 160.424H141.197H137.422V156.886V153.376L136.184 153.435L134.916 153.524L134.827 156.237C134.739 158.802 134.798 159.009 135.476 159.687L136.213 160.424H124.594H112.975L113.713 159.687C114.391 159.009 114.45 158.802 114.361 156.237L114.273 153.494L113.034 153.406L111.766 153.317V156.856V160.424H106.458H101.15V137.747V115.04L106.458 111.707C109.378 109.879 113.27 107.402 115.099 106.252C116.898 105.072 118.608 104.01 118.844 103.892C119.08 103.774 120.436 102.949 121.852 102.064C126.806 98.8791 129.962 96.8444 135.801 93.1876C139.044 91.1528 142.229 89.118 142.878 88.6757C143.527 88.2333 144.205 87.8795 144.382 87.8795C144.588 87.8795 150.28 91.3887 157.063 95.6353ZM178.885 127.543C179.593 129.637 180.153 131.554 180.153 131.731C180.183 132.026 178.502 132.114 172.633 132.114C166.47 132.114 165.113 132.055 165.231 131.731C165.32 131.495 165.88 129.696 166.499 127.661C167.119 125.656 167.767 123.916 167.944 123.798C168.092 123.651 170.363 123.592 172.958 123.651L177.647 123.71L178.885 127.543Z" fill="black"/>
<path d="M143.91 95.4002C143.91 101.357 143.91 101.416 143.261 101.77C142.347 102.242 141.551 103.244 141.551 103.952C141.551 104.513 141.728 104.542 144.5 104.542C146.594 104.542 147.449 104.454 147.449 104.188C147.449 103.421 146.771 102.419 145.945 101.917L145.09 101.416V95.3707C145.09 89.5612 145.06 89.3547 144.5 89.3547C143.94 89.3547 143.91 89.5612 143.91 95.4002Z" fill="black"/>
<path d="M141.816 105.663C139.9 106.193 137.924 107.432 136.715 108.847C135.653 110.116 134.444 112.357 134.65 112.711C134.827 112.976 154.173 113.006 154.32 112.711C154.556 112.327 153.317 110.057 152.138 108.7C149.749 106.016 145.296 104.689 141.816 105.663Z" fill="black"/>
<path d="M141.138 114.686C141.699 115.63 143.232 116.485 144.382 116.485C145.355 116.485 147.154 115.719 147.626 115.07C148.481 113.949 148.216 113.831 144.323 113.831H140.637L141.138 114.686Z" fill="black"/>
<path d="M157.623 135.86C157.181 136.303 156.65 137.04 156.414 137.512C155.588 139.104 154.821 143.439 154.645 147.804L154.438 152.168H149.808C145.414 152.168 145.149 152.198 145.001 152.758C144.913 153.141 145.001 153.348 145.267 153.348C145.503 153.348 145.68 153.613 145.68 153.938C145.68 154.498 145.886 154.527 150.398 154.527C154.438 154.527 155.116 154.468 155.116 154.085C155.116 153.82 155.323 153.554 155.559 153.466C155.913 153.318 155.972 152.935 155.824 151.46C155.618 149.485 156.148 142.79 156.65 140.667C157.033 139.045 158.272 136.539 158.655 136.539C159.009 136.539 159.038 135.447 158.685 135.241C158.537 135.153 158.065 135.447 157.623 135.86Z" fill="black"/>
<path d="M104.984 145.65C104.984 145.945 105.338 146.535 105.75 146.977L106.547 147.744H124.417C140.637 147.744 142.377 147.685 143.026 147.243C143.438 146.977 143.792 146.741 143.822 146.741C143.851 146.712 143.94 146.358 144.058 145.886L144.264 145.09H124.624C105.662 145.09 104.984 145.12 104.984 145.65Z" fill="black"/>
<path d="M110.882 150.694V152.758H124.447H138.012V150.694V148.629H124.447H110.882V150.694Z" fill="black"/>
<path d="M203.155 177.824C199.557 178.472 196.903 180.419 195.399 183.515C193.748 186.847 193.335 190.888 194.19 194.987C195.016 198.82 196.52 201.003 199.351 202.448C201.946 203.775 207.52 203.981 210.439 202.89C213.359 201.769 215.629 199.322 216.809 196.048C217.369 194.456 217.458 193.601 217.458 190.209C217.458 187.172 217.31 185.874 216.927 184.754C215.777 181.48 213.89 179.475 210.941 178.325C209.496 177.765 205.072 177.47 203.155 177.824ZM208.876 182.453C210.085 183.073 210.793 183.869 211.53 185.491C212.386 187.29 212.445 192.834 211.648 195.134C210.646 197.995 208.67 199.351 205.485 199.351C201.415 199.351 199.646 197.257 199.174 191.979C198.85 187.998 199.97 184.282 201.946 182.866C203.716 181.598 206.871 181.421 208.876 182.453Z" fill="black"/>
<path d="M38.2778 178.03C37.9829 178.089 37.747 178.384 37.747 178.649C37.6585 190.386 37.8059 202.772 38.0124 202.979C38.3368 203.303 41.905 203.391 42.4063 203.067C42.6718 202.92 42.7602 199.853 42.7602 190.652C42.7602 178.885 42.7307 178.414 42.1999 178.119C41.6396 177.824 39.2509 177.765 38.2778 178.03Z" fill="black"/>
<path d="M73.4296 178.089L72.6924 178.295L72.5449 187.083L72.3975 195.871L70.2742 191.654C66.9419 185.019 63.8455 179.298 63.2851 178.767C62.5479 178.03 57.5051 177.853 56.8269 178.561C56.355 179.003 56.3256 180.153 56.3845 191.035L56.473 203.037H58.5373H60.6016L60.69 193.453L60.7785 183.869L62.9313 188.145C64.1404 190.504 65.7328 193.541 66.47 194.927C67.2073 196.313 68.2394 198.289 68.7702 199.321C69.3011 200.383 70.1563 201.651 70.6576 202.211C71.5423 203.155 71.6602 203.185 73.813 203.185C75.4349 203.185 76.1722 203.067 76.4966 202.713C76.9094 202.329 76.9684 200.766 76.9684 190.18C76.9684 178.59 76.9389 178.118 76.4081 178.118C76.1132 178.118 75.4939 178.059 75.0221 178C74.5502 177.912 73.8425 177.971 73.4296 178.089Z" fill="black"/>
<path d="M177.234 178.089L176.496 178.295L176.408 190.593L176.349 202.89L177.027 203.037C177.381 203.155 178.502 203.185 179.445 203.126L181.215 203.037L181.303 190.711L181.362 178.413L180.596 178.118C179.77 177.794 178.354 177.765 177.234 178.089Z" fill="black"/>
<path d="M88.3809 178.325C88.027 178.649 88.145 181.51 88.5284 181.893C88.7643 182.129 89.9734 182.247 92.0672 182.247H95.252L95.311 192.627L95.3995 203.037H97.7587H100.118L100.206 192.627L100.265 182.247H103.48C107.254 182.247 107.431 182.129 107.284 179.829L107.195 178.266L97.8766 178.177C92.7749 178.148 88.4989 178.207 88.3809 178.325Z" fill="black"/>
<path d="M118.844 178.414C118.461 178.65 118.402 180.331 118.402 190.652C118.402 200.974 118.461 202.655 118.844 202.891C119.109 203.068 122.176 203.156 126.216 203.097L133.146 203.038L133.235 201.888C133.294 201.239 133.264 200.413 133.176 200.03C132.999 199.352 132.97 199.352 128.281 199.352H123.562V195.666V191.979H127.514C131.878 191.979 131.819 192.009 131.819 189.945C131.819 189.355 131.672 188.706 131.466 188.5C131.23 188.264 129.903 188.146 127.396 188.146C125.332 188.146 123.592 188.087 123.533 188.028C123.474 187.969 123.444 186.553 123.503 184.931L123.592 181.953H128.163H132.704L133.028 181.157C133.176 180.714 133.235 179.859 133.146 179.24L132.94 178.119H126.128C122.324 178.119 119.08 178.267 118.844 178.414Z" fill="black"/>
<path d="M146.122 178.768C146.033 179.151 146.004 184.754 146.033 191.242L146.122 203.038L147.891 203.126C151.194 203.303 150.988 203.627 150.988 197.877V192.864H152.02C153.642 192.864 154.998 193.571 155.795 194.839C156.178 195.459 157.063 197.405 157.77 199.204C158.449 200.973 159.156 202.625 159.333 202.802C159.746 203.362 164.229 203.333 164.435 202.802C164.789 201.829 161.044 193.748 159.658 192.451C158.508 191.419 158.419 191.094 159.215 191.094C159.51 191.094 160.336 190.563 161.073 189.915C162.666 188.529 163.197 186.966 163.02 184.223C162.872 181.628 161.928 180.242 159.628 179.092C157.947 178.296 157.8 178.266 152.108 178.178L146.299 178.089L146.122 178.768ZM156.473 182.513C158.331 183.633 158.449 186.523 156.738 188.145C156.119 188.735 155.618 188.853 153.494 188.971L150.988 189.118V185.521V181.952H153.288C154.998 181.952 155.795 182.1 156.473 182.513Z" fill="black"/>
<path d="M230.374 178.502C230.109 178.827 230.02 181.982 230.079 190.977L230.168 203.008L231.288 203.274C231.967 203.451 232.94 203.451 233.648 203.303L234.886 203.038L235.034 198.025L235.181 193.011L236.095 192.923C237.54 192.775 239.044 193.572 239.811 194.84C240.194 195.459 241.109 197.405 241.787 199.204C242.495 200.974 243.202 202.596 243.35 202.802C243.733 203.303 245.945 203.569 247.419 203.333L248.658 203.126L248.481 201.917C248.363 201.239 248.186 200.561 248.039 200.384C247.921 200.236 247.242 198.703 246.535 197.022C245.68 195.017 244.883 193.572 244.117 192.775C242.819 191.389 242.76 191.213 243.674 190.977C244.588 190.741 246.092 189.355 246.682 188.175C247.921 185.698 247.419 182.012 245.562 180.272C243.586 178.384 243.114 178.267 236.626 178.178C231.76 178.09 230.669 178.149 230.374 178.502ZM240.194 182.366C241.492 182.926 242.229 184.312 242.023 185.875C241.728 188.057 239.9 189.148 236.803 188.971L235.181 188.883L235.093 185.403L235.004 181.953H237.098C238.248 181.953 239.634 182.13 240.194 182.366Z" fill="black"/>
<path d="M86.9065 212.209C86.5821 212.533 86.6705 224.742 86.9949 225.862C87.7322 228.517 89.9439 230.021 93.0109 230.021C95.5765 230.021 97.5228 228.959 98.5844 226.983C99.2037 225.803 99.2332 225.42 99.2332 218.962V212.179H98.496H97.7587L97.6113 219.109C97.4343 226.806 97.3753 227.16 95.3995 228.074C94.3084 228.605 92.1262 228.693 91.035 228.281C90.1503 227.927 89.1182 226.895 88.6759 225.892C88.4989 225.479 88.2925 222.353 88.204 218.667C88.0566 213.123 87.9681 212.179 87.5847 212.091C87.3193 212.061 87.0244 212.091 86.9065 212.209Z" fill="black"/>
<path d="M135.152 212.238C134.857 212.356 134.768 214.096 134.768 219.728C134.768 224.417 134.65 227.071 134.473 227.071C134.326 227.071 134.179 226.953 134.179 226.835C134.179 226.717 133.471 225.361 132.586 223.827C131.731 222.294 129.903 219.05 128.576 216.661L126.098 212.297L124.919 212.385L123.71 212.474L123.621 221.085C123.562 229.607 123.562 229.696 124.182 229.873C124.506 229.991 124.919 229.961 125.066 229.814C125.214 229.666 125.361 226.098 125.391 221.911C125.45 216.809 125.568 214.45 125.745 214.833C126.069 215.511 131.289 224.771 133.028 227.72C134.179 229.696 134.857 230.197 135.771 229.843C136.184 229.696 136.243 228.752 136.243 221.026C136.243 212.208 136.213 211.884 135.152 212.238Z" fill="black"/>
<path d="M143.822 212.239C143.704 212.327 143.615 216.308 143.615 221.086C143.615 228.547 143.674 229.756 144.058 229.903C144.294 230.021 144.706 229.933 144.942 229.726C145.326 229.402 145.385 228.016 145.385 220.879C145.385 213.418 145.326 212.357 144.913 212.209C144.323 211.973 144.058 211.973 143.822 212.239Z" fill="black"/>
<path d="M168.21 212.445C168.121 212.71 168.092 215.807 168.151 219.345C168.298 226.806 168.505 227.603 170.952 229.166C173.489 230.758 177.529 230.198 179.386 227.986C180.625 226.511 180.802 225.273 180.714 218.461C180.625 212.268 180.625 212.179 179.976 212.091C179.327 212.002 179.327 212.002 179.239 218.726C179.151 226.187 179.003 226.836 177.145 227.956C175.789 228.812 173.223 228.753 171.896 227.868C170.156 226.688 170.038 226.158 169.861 218.815C169.714 212.209 169.714 212.179 169.036 212.091C168.652 212.032 168.298 212.179 168.21 212.445Z" fill="black"/>
<path d="M71.7192 221.085C71.8077 229.401 71.8372 229.873 72.368 229.962C72.6629 230.021 73.0167 229.903 73.1642 229.667C73.3116 229.46 73.4296 227.602 73.4296 225.509V221.763H76.8209H80.2123V220.997V220.259L76.9684 220.318C75.1695 220.348 73.636 220.289 73.5476 220.2C73.4591 220.141 73.3706 218.667 73.3411 216.927C73.2822 214.568 73.3706 213.772 73.6655 213.654C73.9014 213.565 75.5234 213.506 77.2928 213.506C80.3007 213.506 80.5072 213.477 80.5072 212.916C80.5072 212.356 80.3007 212.327 76.0837 212.327H71.6602L71.7192 221.085Z" fill="black"/>
<path d="M106.753 213.271C106.724 214.126 106.753 229.166 106.753 229.814C106.753 229.962 107.048 230.021 107.431 229.962C108.051 229.873 108.08 229.785 108.169 225.804L108.257 221.764H110.056C111.707 221.764 111.914 221.852 112.74 222.707C113.241 223.268 114.185 225.037 114.863 226.777C115.954 229.49 116.19 229.873 116.809 229.873C117.369 229.873 117.487 229.726 117.458 229.195C117.31 227.956 114.951 222.648 114.244 221.97C113.329 221.115 113.359 220.997 114.42 220.437C116.455 219.375 117.134 216.337 115.806 214.362C114.715 212.74 113.565 212.327 109.938 212.327H106.753V213.271ZM111.412 213.713C114.155 214.037 115.364 215.895 114.42 218.372C114.008 219.463 111.884 220.348 109.909 220.23L108.375 220.142L108.287 217.222C108.257 215.6 108.287 214.096 108.346 213.89C108.522 213.447 109.112 213.418 111.412 213.713Z" fill="black"/>
<path d="M150.221 212.651C149.867 213.27 150.575 213.477 153.2 213.565L155.854 213.654L156.001 221.763C156.148 229.637 156.178 229.873 156.738 229.873C157.299 229.873 157.328 229.637 157.417 221.911C157.476 216.013 157.593 213.919 157.859 213.742C158.036 213.624 159.274 213.506 160.601 213.506C163.108 213.506 163.432 213.418 163.167 212.739C163.049 212.415 161.84 212.327 156.738 212.327C152.521 212.327 150.368 212.445 150.221 212.651Z" fill="black"/>
<path d="M188.145 220.997C188.145 228.665 188.204 229.756 188.617 229.933C189.531 230.286 189.767 229.461 189.855 225.598L189.973 221.764H191.536C193.866 221.764 194.839 222.708 196.255 226.394C196.844 227.986 197.493 229.461 197.641 229.638C198.053 230.139 198.732 230.11 198.938 229.608C199.204 228.93 196.726 223.032 195.753 222C195.193 221.41 195.016 220.997 195.222 220.938C195.429 220.85 196.019 220.407 196.579 219.936C198.525 218.196 198.525 215.424 196.549 213.507L195.488 212.475L191.802 212.357L188.145 212.268V220.997ZM195.016 214.362C196.667 215.306 196.579 218.225 194.839 219.523C193.895 220.201 189.914 220.614 189.914 220.024C189.885 219.847 189.885 218.432 189.885 216.898C189.885 215.365 189.885 213.949 189.914 213.772C189.914 213.33 194.013 213.772 195.016 214.362Z" fill="black"/>
<path d="M205.249 221.026V229.726H209.967C214.479 229.726 214.686 229.696 214.686 229.136C214.686 228.605 214.45 228.546 210.793 228.487L206.871 228.399V224.86V221.321L210.203 221.233C213.241 221.174 213.506 221.115 213.506 220.584C213.506 220.053 213.241 219.994 210.203 219.935L206.871 219.847V216.75V213.654L210.646 213.565C214.155 213.506 214.391 213.447 214.391 212.916C214.391 212.356 214.184 212.327 209.82 212.327H205.249V221.026Z" fill="black"/>
</svg>
