<svg width="289" height="289" viewBox="0 0 289 289" fill="none" xmlns="http://www.w3.org/2000/svg">
<path d="M43.1321 85.5916C38.1218 87.3655 35.9435 88.9177 33.4746 92.4655C30.7879 96.1612 29.7713 100.966 29.7713 109.392V116.044H25.7776C22.0744 116.044 21.7839 116.192 21.7839 117.744C21.7839 119.148 22.3648 119.666 24.9063 120.405C26.5764 120.922 28.3917 121.735 28.9 122.105C29.5535 122.696 29.7713 129.2 29.7713 150.118V177.392H34.8543H39.9372V150.118C39.9372 129.052 40.155 122.696 40.8811 122.105C41.3894 121.661 43.35 120.922 45.2379 120.479C48.1424 119.739 48.6507 119.296 48.6507 117.818C48.6507 116.118 48.4329 116.044 44.294 116.044H39.9372V110.796C39.9372 98.6003 43.5678 90.5438 50.103 88.1786C52.5718 87.2916 53.7337 86.4786 53.7337 85.5916C53.7337 84.4829 53.0801 84.2612 50.3208 84.2612C48.3603 84.3351 45.1653 84.9264 43.1321 85.5916Z" fill="black"/>
<path d="M226.408 96.4568C225.899 97.122 225.028 98.0829 224.592 98.6742C223.358 100.005 223.43 100.522 224.737 100.522C225.318 100.522 225.972 101.335 226.19 102.37C226.408 103.405 226.698 105.031 226.916 106.066C227.497 108.948 231.49 112.939 234.613 113.9C236.138 114.418 237.445 115.083 237.445 115.452C237.445 115.748 234.54 116.044 231.055 116.044C225.1 116.044 224.374 116.192 220.598 118.557L216.532 121.07L211.667 118.557C207.383 116.339 206.076 116.044 201.356 116.044C196.128 116.044 195.837 116.118 193.441 118.557C190.827 121.218 190.246 121.218 190.246 118.483C190.246 116.783 190.174 116.783 181.533 116.783C173.4 116.783 172.819 116.857 172.819 118.187C172.819 119.222 173.618 119.887 175.578 120.552C177.031 120.996 178.701 121.735 179.209 122.179C179.863 122.696 180.08 129.2 180.08 150.118V177.392H185.091H190.101L190.391 152.409C190.609 129.792 190.755 127.279 191.989 124.692C193.804 120.922 196.709 119.518 201.574 119.887C206.148 120.257 207.964 121.661 210.142 126.392C211.594 129.496 211.667 131.196 211.885 153.518L212.175 177.392H216.096H220.018V153.148C220.018 139.844 220.381 127.648 220.744 126.022C221.107 124.322 222.269 122.326 223.358 121.292C225.1 119.813 225.972 119.592 229.966 119.887C233.741 120.109 234.903 120.552 236.573 122.179C240.277 125.8 240.567 127.722 240.858 153.518L241.148 177.392H245.868H250.588L250.37 153.148C250.152 130.383 250.079 128.757 248.627 125.652C247.756 123.805 246.231 121.513 245.142 120.552C243.762 119.222 243.472 118.557 244.125 118.113C244.779 117.744 244.488 117.522 243.399 117.522C242.455 117.522 241.801 117.152 241.947 116.709C242.455 115.231 247.901 113.679 251.967 113.826C255.671 113.9 255.816 113.826 254.509 112.792C253.129 111.757 253.129 111.683 254.436 111.166C255.162 110.87 258.212 111.166 261.262 111.831C266.926 113.087 267.942 113.013 266.635 111.461C266.199 110.944 265.909 110.131 265.982 109.761C266.054 109.318 264.965 108.948 263.585 108.8C262.206 108.726 259.592 108.283 257.776 107.839C253.928 106.952 238.679 99.4872 235.775 97.0481C233.306 94.9785 227.86 94.6829 226.408 96.4568Z" fill="black"/>
<path d="M81.3266 115.969C70.362 119.591 65.4243 130.678 66.2231 149.969C66.804 163.052 69.999 170.147 77.0424 174.065C80.31 175.839 82.0527 176.282 87.2083 176.504C95.7766 176.947 100.714 175.469 104.998 171.108C108.411 167.56 108.847 166.304 107.032 164.752C106.088 163.939 105.507 164.308 102.965 167.265C99.4799 171.478 96.8658 172.956 93.0173 172.956C85.2477 172.956 80.2374 167.56 77.9864 156.769C77.4781 154.108 76.9698 149.969 76.9698 147.604V143.391H93.0173H109.137L108.702 137.995C107.83 127.499 104.781 121.217 98.9716 117.817C96.1397 116.043 94.6148 115.747 89.3867 115.525C85.9738 115.452 82.3432 115.599 81.3266 115.969ZM93.0899 120.33C95.4862 122.621 97.0836 127.278 97.7372 134.004C98.1002 137.995 98.0276 139.252 97.2289 139.769C95.5588 140.804 78.7125 140.582 77.8412 139.473C76.6794 138.069 78.2042 127.425 80.0922 123.434C82.9241 117.521 88.7331 116.117 93.0899 120.33Z" fill="black"/>
<path d="M147.041 116.339C145.88 116.857 144.064 118.187 143.12 119.296C140.797 121.809 140.143 121.735 140.143 119V116.783H131.067C122.934 116.783 121.99 116.931 121.99 118.039C121.99 118.926 123.224 119.813 125.838 120.848L129.614 122.326L129.832 149.822L129.977 177.392H135.06H140.143V154.996C140.143 131.492 140.651 126.835 143.629 122.696C145.299 120.405 149.075 119.074 152.052 119.739C154.303 120.183 154.303 120.183 154.085 124.322C153.722 129.348 155.392 131.566 159.24 131.566C165.485 131.492 167.518 124.026 162.581 119.074C159.095 115.452 151.761 114.196 147.041 116.339Z" fill="black"/>
<path d="M66.9492 198.235L66.804 203.261L69.5633 203.187C72.1774 203.113 72.1774 203.039 70.0716 202.596C68.0384 202.152 67.8932 201.93 67.4575 197.717L67.0219 193.282L66.9492 198.235Z" fill="black"/>
<path d="M95.3409 198.456C95.3409 201.265 95.4862 202.374 95.6314 200.821C95.7766 199.343 95.7766 196.978 95.6314 195.647C95.4862 194.391 95.3409 195.574 95.3409 198.456Z" fill="black"/>
<path d="M119.158 194.539C119.303 196.831 121.845 202.892 122.643 202.892C123.152 202.892 124.314 200.822 125.258 198.235C126.419 194.983 126.637 193.652 125.984 193.652C125.475 193.652 124.677 195.131 124.168 196.979C123.66 198.826 123.007 200.305 122.716 200.305C122.426 200.305 121.772 198.826 121.264 196.979C120.465 193.948 119.013 192.322 119.158 194.539Z" fill="black"/>
<path d="M149.801 198.456C149.801 201.265 149.946 202.374 150.091 200.821C150.236 199.343 150.236 196.978 150.091 195.647C149.946 194.391 149.801 195.574 149.801 198.456Z" fill="black"/>
<path d="M174.271 198.456C174.271 201.191 174.562 203.261 174.997 203.261C175.433 203.261 175.724 201.709 175.724 199.713V196.239L177.902 199.713C179.136 201.709 180.443 203.261 180.807 203.261C181.242 203.261 181.533 201.191 181.533 198.456C181.533 195.722 181.242 193.652 180.807 193.652C180.443 193.652 180.08 195.204 180.08 197.126V200.6L177.902 197.126C176.74 195.204 175.433 193.652 174.997 193.652C174.562 193.652 174.271 195.648 174.271 198.456Z" fill="black"/>
<path d="M206.003 194.982C204.478 196.682 204.406 200.6 205.931 202.078C206.584 202.743 208.254 203.261 209.924 203.261C212.684 203.261 212.756 203.187 212.756 200.674C212.756 198.382 212.538 198.087 210.941 198.087C209.924 198.087 209.126 198.382 209.126 198.826C209.126 199.196 209.634 199.565 210.215 199.565C210.796 199.565 211.304 200.23 211.304 201.043C211.304 202.669 209.852 202.965 207.601 201.782C205.495 200.6 205.785 196.978 208.036 195.426C209.053 194.761 210.36 194.391 210.941 194.687C211.522 194.909 212.03 194.761 212.03 194.391C212.03 193.061 207.238 193.578 206.003 194.982Z" fill="black"/>
</svg>
