<svg width="289" height="289" viewBox="0 0 289 289" fill="none" xmlns="http://www.w3.org/2000/svg">
<path d="M85.8711 12.679C78.9639 15.8347 75.8142 26.3539 79.5165 33.9387C81.1742 37.3713 85.3186 41.5236 88.634 43.0738C100.017 48.4441 113.445 35.2675 108.914 23.1428C105.875 15.115 93.2205 9.35713 85.8711 12.679ZM94.6019 15.5025C98.9673 16.7205 102.78 21.9801 102.78 26.7968C102.78 31.6135 98.249 34.7692 92.1153 34.1602C89.0209 33.8834 87.1421 32.6654 84.8212 29.3989C83.495 27.5165 83.1635 26.4092 82.9977 23.3642C82.7767 19.9317 82.8872 19.4334 84.2687 17.8278C86.479 15.2257 90.347 14.3399 94.6019 15.5025Z" fill="black"/>
<path d="M31.7734 21.5924C31.0551 22.6997 33.2101 24.1392 37.4098 25.4126C53.8767 30.2846 68.7411 43.0737 83.7713 65.33C85.9264 68.5411 91.2864 76.8457 95.5966 83.8769C109.08 105.746 113.224 111.282 119.137 115.49C124.828 119.587 127.757 120.417 136.211 120.417C142.842 120.362 143.837 120.196 148.921 118.535C158.646 115.324 167.874 110.507 183.789 100.431C193.127 94.5622 196.995 92.6244 202.134 91.2957C215.949 87.7524 229.653 93.1227 242.196 106.908C244.241 109.178 247.335 113.109 249.104 115.656C252.64 120.86 253.911 122.023 254.74 120.694C255.514 119.476 254.961 118.147 251.535 113.22C233.687 87.3649 217.164 77.8976 198.045 82.4928C191.746 83.9876 186.938 85.9808 172.903 93.012C166.161 96.4445 157.983 100.099 154.778 101.206C149.252 103.088 148.479 103.199 142.013 103.199C136.101 103.199 134.664 103.033 131.901 101.926C123.115 98.4376 115.213 90.9081 101.122 72.5273C83.274 49.2191 74.6537 40.2501 62.5522 32.3884C52.1084 25.6894 33.3207 19.0457 31.7734 21.5924Z" fill="black"/>
<path d="M33.5417 164.265C33.3207 164.431 33.1549 177.552 33.1549 193.331V222.01H37.2992H41.4436V208.999V195.989L56.8054 195.878L72.1119 195.712L72.2776 192.501L72.4434 189.345H56.9159H41.4436V180.21V171.075H58.2973H75.1511V167.476V163.878H54.5398C43.1566 163.878 33.7075 164.044 33.5417 164.265Z" fill="black"/>
<path d="M83.4398 168.584V173.29H87.3078H91.1759V168.584V163.878H87.3078H83.4398V168.584Z" fill="black"/>
<path d="M205.008 175.504V187.186L202.963 185.58C199.979 183.255 197.106 182.48 191.746 182.48C181.689 182.535 176.605 187.241 175.113 197.927C174.395 203.186 175.168 210.273 176.881 214.259C178.318 217.636 181.965 221.013 185.225 221.955C191.304 223.837 197.99 223.173 202.466 220.349L205.008 218.688V220.349V222.01H208.876H212.744L212.633 193.055L212.468 164.155L208.765 163.989L205.008 163.822V175.504ZM201.029 190.286C203.792 192.335 204.566 194.439 204.842 200.584C205.229 208.224 204.455 211.989 201.968 214.204C199.703 216.197 197.493 216.695 192.298 216.363C187.988 216.141 186.109 215.089 184.286 211.989C183.402 210.494 183.125 208.833 182.96 203.795C182.683 194.882 183.899 191.504 188.154 189.567C190.751 188.349 199.04 188.792 201.029 190.286Z" fill="black"/>
<path d="M255.072 165.095C253.801 166.147 253.469 167.033 253.248 169.192C252.972 172.791 253.911 174.452 256.785 175.448C258.663 176.113 259.437 176.168 261.316 175.559C264.189 174.729 265.46 172.514 265.073 168.971C264.686 165.594 263.305 164.32 259.547 163.988C257.006 163.767 256.398 163.933 255.072 165.095ZM262.145 166.258C262.642 166.646 263.25 167.974 263.416 169.248C263.692 171.241 263.526 171.739 262.2 173.012C260.929 174.286 260.432 174.507 258.498 174.23C255.679 173.843 255.237 173.4 254.906 170.355C254.685 168.362 254.851 167.642 255.79 166.701C257.116 165.372 260.597 165.095 262.145 166.258Z" fill="black"/>
<path d="M256.398 169.968C256.398 172.57 256.563 173.29 257.227 173.29C257.669 173.29 258.055 172.792 258.055 172.183C258.055 171.574 258.276 171.075 258.608 171.075C258.884 171.075 259.437 171.574 259.824 172.183C260.211 172.792 260.818 173.29 261.205 173.29C262.034 173.29 262.089 172.792 261.426 171.684C261.095 171.186 261.095 170.466 261.426 169.857C262.366 168.086 261.095 166.646 258.608 166.646H256.398V169.968ZM259.713 168.861C259.713 169.138 259.326 169.415 258.884 169.415C258.442 169.415 258.055 169.138 258.055 168.861C258.055 168.529 258.442 168.307 258.884 168.307C259.326 168.307 259.713 168.529 259.713 168.861Z" fill="black"/>
<path d="M114.937 182.868C110.793 183.864 108.251 185.138 105.819 187.574C98.3595 194.937 98.5805 211.823 106.206 218.411C114.716 225.664 130.741 224.058 136.598 215.311C138.864 211.878 139.527 209.11 139.527 202.633C139.527 195.048 138.477 191.892 134.609 187.961C130.022 183.255 122.065 181.207 114.937 182.868ZM127.591 190.397C130.078 192.169 131.57 195.767 131.901 200.916C132.288 206.176 131.349 210.992 129.47 213.152C127.204 215.92 125.104 216.695 120.186 216.75C111.898 216.75 108.803 213.595 108.416 204.626C108.14 198.702 108.969 194.383 110.958 192.058C113.169 189.345 115.103 188.736 120.739 188.902C124.994 189.068 125.989 189.29 127.591 190.397Z" fill="black"/>
<path d="M163.288 183.2C160.691 183.864 158.259 185.303 156.988 186.964L155.883 188.515L155.828 185.857V183.255H151.96H148.092V202.632V222.01H151.905H155.717L155.938 208.833C156.104 197.539 156.215 195.435 157.099 193.94C158.591 191.172 160.912 190.231 166.216 190.175H170.748V186.798C170.748 184.196 170.527 183.31 169.863 183.034C168.758 182.591 165.443 182.701 163.288 183.2Z" fill="black"/>
<path d="M229.929 183.532C227.995 183.975 225.564 184.916 224.514 185.581C220.535 188.294 219.264 194.937 221.751 199.865C223.961 204.294 228.05 205.955 236.726 205.955C243.854 205.955 245.899 207.062 245.899 210.937C245.899 213.373 243.909 215.2 240.594 215.699C237.665 216.142 224.072 215.643 222.58 215.09C221.696 214.758 221.585 215.09 221.585 218.024C221.585 220.682 221.806 221.401 222.58 221.733C224.514 222.509 238.991 222.73 242.804 222.066C250.982 220.626 253.303 217.913 252.972 210.052C252.806 205.955 252.64 205.29 251.093 203.353C248.662 200.363 245.622 199.422 237.057 198.868C228.769 198.314 227.664 197.816 227.664 194.218C227.664 189.899 230.482 189.013 242.694 189.512L250.319 189.844V186.854C250.319 185.193 250.043 183.698 249.767 183.532C248.441 182.702 233.466 182.702 229.929 183.532Z" fill="black"/>
<path d="M83.4398 203.85C83.4398 215.2 83.1635 225.498 82.8872 226.716C82.6109 228.044 81.7268 229.539 80.6769 230.425C79.2402 231.754 78.5218 231.975 75.7036 231.975H72.3882V235.242V238.453L74.3222 238.785C79.0191 239.56 85.4843 237.29 87.8604 234.079C90.7891 230.148 90.8444 229.428 91.0654 205.511L91.2312 183.255H87.3631H83.4398V203.85Z" fill="black"/>
<path d="M245.512 250.799C244.683 251.131 244.186 251.962 243.909 253.401C243.744 254.564 243.191 255.837 242.694 256.17C241.92 256.834 241.92 256.889 242.749 256.889C243.523 256.889 243.688 257.664 243.799 261.706C243.909 264.917 244.186 266.578 244.683 266.744C245.18 266.91 245.346 265.692 245.346 261.927V256.889H247.004C247.943 256.889 248.662 256.612 248.662 256.336C248.662 256.003 247.888 255.782 246.949 255.782C245.401 255.782 245.291 255.671 245.457 253.955C245.622 252.405 245.843 252.183 247.446 252.017C248.551 251.907 249.214 251.519 249.214 251.021C249.214 250.135 247.391 250.024 245.512 250.799Z" fill="black"/>
<path d="M32.6023 258.827C32.6023 263.809 32.8233 266.854 33.1549 266.854C33.4864 266.854 33.7075 265.304 33.7075 263.256V259.657H35.9178C37.9623 259.657 38.1834 259.823 39.4543 262.259C41.2778 265.858 42.383 267.242 42.9356 266.688C43.1566 266.412 42.5488 264.751 41.5541 262.979L39.7859 259.713L41.2226 258.273C42.4935 257 42.6593 256.501 42.383 254.508C41.9409 251.463 40.891 250.799 36.3598 250.799H32.6023V258.827ZM39.8411 252.46C41.0568 253.124 41.3331 256.225 40.2279 257.332C39.8411 257.719 38.2386 257.996 36.6361 257.996H33.7075V254.951V251.906H36.2493C37.6308 251.906 39.2333 252.183 39.8411 252.46Z" fill="black"/>
<path d="M56.3633 257.775C56.3633 264.751 56.8053 266.854 58.2973 266.854C59.2367 266.854 59.4025 265.969 58.5736 265.47C58.2421 265.249 58.021 262.149 58.021 257.941C58.021 251.962 57.9105 250.799 57.1922 250.799C56.4738 250.799 56.3633 251.962 56.3633 257.775Z" fill="black"/>
<path d="M130.962 258.882C130.962 265.083 131.128 266.91 131.68 266.744C132.122 266.578 132.454 264.529 132.62 260.155L132.896 253.844L135.217 258.993C136.543 261.761 137.869 264.086 138.256 264.086C138.643 264.086 139.969 261.816 141.185 259.048C142.4 256.28 143.561 253.899 143.837 253.789C144.058 253.623 144.224 256.501 144.224 260.155C144.224 264.252 144.445 266.854 144.776 266.854C145.108 266.854 145.329 263.809 145.329 258.827C145.329 251.519 145.218 250.799 144.334 250.799C143.616 250.799 142.676 252.294 140.963 256.335C139.637 259.325 138.366 261.706 138.145 261.595C137.924 261.484 136.709 258.993 135.382 256.059C133.614 252.183 132.73 250.799 132.012 250.799C131.017 250.799 130.962 251.353 130.962 258.882Z" fill="black"/>
<path d="M165.774 253.457V256.059L163.398 255.893C160.525 255.672 159.199 256.89 158.757 260.045C158.149 264.696 161.022 267.852 164.724 266.468C165.774 266.025 166.437 266.08 166.824 266.468C167.266 266.911 167.432 264.751 167.432 258.938C167.432 252.073 167.322 250.8 166.603 250.8C165.995 250.8 165.774 251.464 165.774 253.457ZM164.89 257.222C165.553 257.499 165.774 258.385 165.774 261.374V265.194H163.564C161.022 265.194 160.249 264.198 160.249 260.987C160.249 257.776 162.238 256.225 164.89 257.222Z" fill="black"/>
<path d="M185.115 258.827V266.854H187.878C194.343 266.854 197.493 262.868 194.122 258.993C193.403 258.162 193.403 257.941 194.177 256.778C195.393 255.007 195.282 253.733 193.68 252.183C192.519 250.965 191.856 250.799 188.707 250.799H185.115V258.827ZM192.354 252.958C193.459 253.844 193.569 254.232 193.127 255.56C192.575 257.055 192.298 257.166 189.37 257.332L186.22 257.498V254.674V251.906H188.651C190.198 251.906 191.525 252.294 192.354 252.958ZM193.072 259.989C194.177 261.097 194.177 262.37 193.072 263.976C192.409 264.972 191.69 265.194 189.204 265.194H186.22V262.149V259.104H189.204C191.193 259.104 192.519 259.38 193.072 259.989Z" fill="black"/>
<path d="M261.371 257.775C261.371 264.751 261.813 266.854 263.305 266.854C264.244 266.854 264.41 265.969 263.581 265.47C263.25 265.249 263.029 262.149 263.029 257.941C263.029 251.962 262.918 250.799 262.2 250.799C261.481 250.799 261.371 251.962 261.371 257.775Z" fill="black"/>
<path d="M100.404 252.294C99.6857 252.958 100.017 253.567 101.122 253.567C101.73 253.567 102.228 253.18 102.228 252.737C102.228 251.906 101.067 251.574 100.404 252.294Z" fill="black"/>
<path d="M237.61 252.682C237.61 253.235 238.107 253.567 238.77 253.567C240.097 253.567 239.931 252.294 238.549 252.017C237.997 251.906 237.61 252.183 237.61 252.682Z" fill="black"/>
<path d="M94.1046 252.847C93.7178 253.013 93.3862 253.733 93.3862 254.453C93.3862 255.339 92.9442 256.003 92.1706 256.335L90.8996 256.834H92.1706C93.331 256.889 93.3862 257.11 93.3862 260.931C93.3862 265.36 94.2151 266.854 96.5912 266.854C98.249 266.854 98.1384 265.969 96.4254 265.526C95.0992 265.194 95.044 264.972 95.044 261.041V256.889H96.7017C97.6411 256.889 98.3595 256.612 98.3595 256.335C98.3595 256.003 97.6411 255.782 96.757 255.782C95.3755 255.782 95.0992 255.56 94.9335 254.232C94.823 253.235 94.4914 252.737 94.1046 252.847Z" fill="black"/>
<path d="M230.979 254.287C230.979 255.117 230.482 255.837 229.763 256.225L228.492 256.834H229.763C230.924 256.889 230.979 257.11 230.979 261.318C230.979 266.024 231.476 266.854 234.239 266.854C235.786 266.854 235.731 265.858 234.184 265.636C233.024 265.47 232.913 265.138 232.747 261.152L232.581 256.889H234.294C235.289 256.889 235.897 256.668 235.676 256.335C235.51 256.003 234.737 255.782 233.963 255.782C232.913 255.782 232.637 255.505 232.637 254.398C232.637 253.512 232.305 253.013 231.808 253.013C231.311 253.013 230.979 253.512 230.979 254.287Z" fill="black"/>
<path d="M46.8589 256.392C44.4275 257.776 44.5381 264.973 46.9694 266.302C48.1298 266.911 50.8375 267.021 52.1637 266.523C53.9319 265.859 52.9925 265.194 50.2849 265.194C47.7983 265.194 47.4115 265.028 46.9694 263.755C46.6379 262.98 46.4168 262.26 46.4168 262.094C46.4168 261.983 48.0746 261.873 50.0639 261.873H53.7662L53.4346 259.658C53.2688 258.385 52.8268 257.056 52.4952 256.613C51.7216 255.672 48.2956 255.561 46.8589 256.392ZM51.2795 257.554C51.6663 257.942 51.9426 258.772 51.9426 259.492C51.9426 260.655 51.7216 260.765 49.1245 260.765C46.4721 260.765 46.3616 260.71 46.6931 259.492C47.4115 257.222 49.8428 256.115 51.2795 257.554Z" fill="black"/>
<path d="M62.2759 256.17C61.3918 257 61.9996 257.498 63.5468 257.166C64.431 256.945 65.7019 256.945 66.3098 257.166C67.5254 257.554 67.857 259.657 66.7518 259.657C64.5415 259.657 61.7786 260.931 61.3365 262.204C60.1761 265.194 63.1048 267.685 66.365 266.467C67.4149 266.024 68.078 266.08 68.4648 266.467C68.9069 266.91 69.0727 265.748 69.0727 262.37C69.0727 258.439 68.9069 257.443 68.078 256.723C67.0834 255.782 62.9943 255.394 62.2759 256.17ZM67.3044 262.813C67.1386 264.806 67.0281 264.917 65.0941 265.083C63.4363 265.249 62.9943 265.028 62.718 264.087C62.2759 262.592 63.2153 261.429 65.0941 261.152C65.9229 261.042 66.8071 260.875 67.0281 260.82C67.3044 260.82 67.4149 261.706 67.3044 262.813Z" fill="black"/>
<path d="M71.6145 256.447C71.8356 256.834 72.6092 257.942 73.2723 258.938C73.9906 259.879 74.5985 260.876 74.5985 261.042C74.5985 261.263 73.8249 262.537 72.8302 263.866C71.8908 265.194 71.283 266.468 71.504 266.689C71.8908 267.132 73.9354 265.139 75.0958 263.146C75.7036 262.205 75.7036 262.205 76.3115 263.146C77.4166 265.028 79.4612 267.132 79.848 266.744C80.069 266.523 79.4612 265.25 78.5218 263.866C77.5824 262.537 76.8088 261.208 76.8088 260.987C76.8088 260.765 77.3614 259.824 78.0797 258.883C80.1243 256.17 80.2901 255.782 79.3507 255.782C78.8534 255.782 77.914 256.668 77.2509 257.72C76.5325 258.772 75.8142 259.658 75.5931 259.658C75.4273 259.658 74.709 258.772 74.0459 257.72C73.3828 256.668 72.4987 255.782 72.0566 255.782C71.5593 255.782 71.3935 256.059 71.6145 256.447Z" fill="black"/>
<path d="M82.7214 256.17C81.8373 257 82.4451 257.498 83.9924 257.166C84.8765 256.945 86.1474 256.945 86.7553 257.166C87.9709 257.554 88.3025 259.657 87.1973 259.657C84.987 259.657 82.2241 260.931 81.782 262.204C80.6216 265.194 83.5503 267.685 86.8105 266.467C87.8604 266.024 88.5235 266.08 88.9103 266.467C89.3524 266.91 89.5182 265.748 89.5182 262.37C89.5182 258.439 89.3524 257.443 88.5235 256.723C87.5289 255.782 83.4398 255.394 82.7214 256.17ZM87.7499 262.813C87.5841 264.806 87.4736 264.917 85.5396 265.083C83.8818 265.249 83.4398 265.028 83.1635 264.087C82.7214 262.592 83.6608 261.429 85.5396 261.152C86.3685 261.042 87.2526 260.875 87.4736 260.82C87.7499 260.82 87.8604 261.706 87.7499 262.813Z" fill="black"/>
<path d="M100.57 260.654C100.57 264.419 100.791 265.803 101.399 266.301C101.896 266.689 102.338 266.91 102.393 266.8C102.449 266.689 102.393 264.253 102.228 261.374C102.062 257.886 101.73 256.059 101.288 255.893C100.736 255.727 100.57 256.945 100.57 260.654Z" fill="black"/>
<path d="M106.151 257.221C104.438 259.381 104.548 263.699 106.372 265.471C108.251 267.408 111.124 267.353 112.671 265.415C114.274 263.367 114.274 258.439 112.727 256.889C111.014 255.173 107.588 255.394 106.151 257.221ZM111.29 257.609C112.063 258.163 112.229 258.993 112.063 261.595L111.898 264.917L109.743 265.083C107.146 265.304 106.648 264.695 106.648 261.208C106.648 257.443 108.803 255.782 111.29 257.609Z" fill="black"/>
<path d="M116.595 261.484C116.595 265.636 116.76 266.91 117.313 266.744C117.755 266.578 118.031 264.972 118.142 261.982C118.308 257.719 118.363 257.443 119.634 257.11C122.231 256.446 122.618 257.055 122.784 261.927C122.894 264.972 123.17 266.578 123.668 266.744C124.718 267.076 124.607 257.276 123.557 256.391C123.115 256.003 121.457 255.782 119.689 255.892L116.595 256.058V261.484Z" fill="black"/>
<path d="M149.584 256.17C148.7 257 149.307 257.333 151.131 257.056C152.291 256.89 153.397 257 153.894 257.443C155.386 258.717 154.833 259.603 152.236 259.99C148.368 260.544 146.876 263.423 149.252 265.803C150.192 266.745 150.799 266.911 152.402 266.634C153.562 266.468 154.889 266.302 155.441 266.246C156.27 266.246 156.38 265.637 156.38 262.26C156.38 257.056 155.552 255.782 152.291 255.782C151.02 255.782 149.75 255.949 149.584 256.17ZM154.612 262.814C154.446 264.807 154.336 264.918 152.347 265.084C150.799 265.194 150.192 265.028 149.915 264.309C149.252 262.537 150.744 261.374 154.336 260.821C154.612 260.821 154.723 261.706 154.612 262.814Z" fill="black"/>
<path d="M172.074 256.225C170.913 257 170.195 259.049 170.195 261.595C170.195 265.637 173.4 267.907 177.047 266.523C178.815 265.858 177.876 265.194 175.224 265.194C173.289 265.194 172.405 264.972 172.184 264.308C171.355 262.204 171.742 261.872 175.168 261.872H178.484V260.045C178.484 257.277 177.158 255.782 174.726 255.782C173.621 255.782 172.405 256.003 172.074 256.225ZM176.163 257.554C176.55 257.941 176.826 258.772 176.826 259.491C176.826 260.654 176.55 260.765 174.339 260.765C172.074 260.765 171.853 260.654 171.853 259.381C171.853 257.332 174.726 256.114 176.163 257.554Z" fill="black"/>
<path d="M199.371 256.392C196.94 257.776 197.05 264.973 199.482 266.302C200.642 266.911 203.35 267.021 204.676 266.523C206.444 265.859 205.505 265.194 202.797 265.194C200.311 265.194 199.924 265.028 199.482 263.755C199.15 262.98 198.929 262.26 198.929 262.094C198.929 261.983 200.587 261.873 202.576 261.873H206.279L205.947 259.658C205.781 258.385 205.339 257.056 205.008 256.613C204.234 255.672 200.808 255.561 199.371 256.392ZM203.792 257.554C204.179 257.942 204.455 258.772 204.455 259.492C204.455 260.655 204.234 260.765 201.637 260.765C198.985 260.765 198.874 260.71 199.206 259.492C199.924 257.222 202.355 256.115 203.792 257.554Z" fill="black"/>
<path d="M209.263 256.17C208.323 257.055 209.042 257.443 211.086 257.111C212.523 256.889 213.573 257 214.125 257.443C215.562 258.661 215.065 259.547 212.633 259.934C209.705 260.433 208.323 261.595 208.323 263.588C208.323 265.858 210.257 266.966 213.628 266.689L216.336 266.412V262.038C216.336 256.612 215.783 255.782 212.191 255.782C210.81 255.782 209.428 255.948 209.263 256.17ZM214.844 262.813C214.678 264.862 214.623 264.917 212.468 264.917C210.368 264.917 210.257 264.806 210.257 263.256C210.257 261.54 210.312 261.54 214.567 260.82C214.844 260.82 214.954 261.706 214.844 262.813Z" fill="black"/>
<path d="M218.822 260.1C218.822 265.747 219.651 267.076 222.911 266.633C224.127 266.467 225.619 266.301 226.172 266.246C227 266.246 227.111 265.581 227.111 260.986C227.111 256.723 226.945 255.782 226.282 255.782C225.619 255.782 225.453 256.668 225.453 260.543V265.249L223.132 265.083L220.756 264.917L220.59 260.322C220.48 256.778 220.259 255.782 219.651 255.782C218.988 255.782 218.822 256.668 218.822 260.1Z" fill="black"/>
<path d="M238.163 261.042C238.163 265.305 238.328 266.412 238.991 266.689C240.152 267.077 240.76 266.468 239.931 265.637C239.544 265.25 239.268 263.201 239.268 260.378C239.268 257.665 239.047 255.782 238.715 255.782C238.384 255.782 238.163 257.886 238.163 261.042Z" fill="black"/>
<path d="M250.706 256.17C250.098 256.723 250.264 263.256 250.872 264.862C251.48 266.523 253.745 267.243 255.9 266.467C256.95 266.025 257.613 266.08 258 266.467C258.442 266.91 258.608 265.471 258.608 261.429C258.608 256.779 258.442 255.782 257.779 255.782C257.116 255.782 256.95 256.668 256.95 260.544V265.249L254.629 265.083L252.253 264.917L252.088 260.322C251.922 256.114 251.646 255.173 250.706 256.17Z" fill="black"/>
</svg>
