<svg width="289" height="289" viewBox="0 0 289 289" fill="none" xmlns="http://www.w3.org/2000/svg">
<path d="M32.8026 89.4542C22.3817 91.203 13.332 99.6413 6.94023 113.588C3.88147 120.19 1.96183 127.186 0.907087 135.449C0.421904 139.166 0.358619 140.565 0.337524 147.123C0.337524 152.807 0.421904 155.255 0.696138 157.572C1.6876 165.617 3.54395 172.175 6.49723 177.99C10.6951 186.254 15.4204 189.489 23.3099 189.489C28.8367 189.489 32.8658 188.265 37.781 185.117L40.228 183.543L42.5906 168.153C45.9447 146.38 45.7759 147.342 46.6619 145.505C47.4213 143.931 49.0456 142.532 50.1426 142.532C50.5645 142.532 51.0496 141.221 51.0496 140.084C51.0496 139.996 46.0713 139.909 39.9748 139.909C30.5454 139.909 28.9 139.996 28.9 140.521C28.9 140.871 28.8578 141.439 28.7734 141.789C28.6891 142.27 28.9633 142.445 29.9969 142.62C31.6212 142.882 32.9924 144.237 33.562 146.161C33.8995 147.254 33.9628 148.041 33.8784 149.79C33.7518 152.02 29.2586 182.188 28.9422 182.844C28.5836 183.587 25.3772 184.942 23.9638 184.942C21.0105 184.942 18.2471 182.494 16.011 177.947C14.3234 174.536 13.2687 170.427 12.6358 164.918C12.235 161.551 12.1929 160.239 12.2983 153.463C12.4671 142.707 13.2476 136.105 15.4837 126.574C18.901 112.058 23.3942 102.702 29.343 97.7613C32.6971 94.9631 36.6629 94.0887 39.6162 95.5315C44.2149 97.805 47.0627 105.063 47.569 115.949C47.7799 120.497 47.8221 120.671 48.5183 120.671C48.8769 120.671 49.1511 120.628 49.1511 120.54C49.1511 120.497 49.9527 113.457 50.9231 104.932L52.674 89.4104L52.0622 89.2793C51.6192 89.1918 51.2395 89.5416 50.5856 90.6784C49.1511 93.2142 48.4128 93.2579 43.2445 90.9844C40.8186 89.8914 39.5318 89.5853 37.0215 89.4542C35.2918 89.3667 33.3932 89.3667 32.8026 89.4542Z" fill="black"/>
<path d="M281.511 90.9844C278.959 91.9025 276.238 92.8644 275.457 93.1267C274.191 93.6077 274.023 93.7388 273.833 94.9193C273.622 96.1435 273.643 96.1872 274.149 95.9249C274.951 95.4877 276.048 96.0998 276.765 97.324C277.841 99.2478 277.693 101.172 275.499 114.594C274.445 120.934 273.559 126.399 273.495 126.749C273.411 127.142 273.116 126.792 272.462 125.568C270.626 122.07 268.918 121.065 266.239 121.939C262.631 123.12 259.763 126.574 256.071 134.181C253.307 139.953 251.43 145.418 249.785 152.588C246.726 165.967 246.726 179.87 249.806 185.598C252.042 189.795 254.953 190.276 258.096 187.041C259.826 185.248 263.074 178.34 265.353 171.607C267.525 165.267 267.525 165.224 267.272 166.841C267.167 167.541 266.745 170.339 266.323 173.05C264.846 182.844 265.564 187.565 268.686 188.877C272.609 190.582 276.955 185.773 280.562 175.761C281.912 172.044 281.933 171.957 281.216 171.214L280.604 170.558L279.507 173.268C278.263 176.329 276.913 178.734 276.217 179.083C275.499 179.477 274.888 178.865 274.74 177.684C274.634 176.897 276.66 163.912 281.68 132.913L288.747 89.1918L287.46 89.2355C286.743 89.2792 284.064 90.0662 281.511 90.9844ZM270.162 126.355C271.048 127.448 271.512 128.978 271.744 131.514C272.251 137.198 270.479 148.653 267.357 159.802C265.859 165.224 264.783 168.284 263.264 171.432C261.155 175.848 259.446 176.854 258.159 174.493C257.505 173.268 257.463 173.05 257.379 169.596C257.337 167.585 257.421 164.568 257.569 162.863C258.455 152.413 262.399 135.143 265.247 129.241C266.998 125.612 268.77 124.563 270.162 126.355Z" fill="black"/>
<path d="M70.478 122.202C65.6895 124.388 60.1626 133.963 56.5554 146.38C55.1842 151.102 53.7076 158.447 53.138 163.344C52.5052 168.765 52.5052 175.367 53.138 179.258C54.2982 186.254 56.028 189.096 59.1712 189.096C60.2048 189.052 61.2807 188.746 61.9557 188.309C64.3394 186.603 67.7146 180.308 70.5202 172.394C71.2374 170.339 71.9969 168.24 72.1867 167.716C72.4188 167.104 72.2711 168.546 71.7226 172.132C70.246 181.794 70.2249 184.461 71.6172 186.997C72.8828 189.271 74.697 189.795 77.3128 188.658C79.802 187.565 81.7005 185.336 83.7889 180.963C85.371 177.641 87.1219 172.919 87.1219 171.913C87.1219 171.738 86.8477 171.345 86.4891 171.082C85.9195 170.645 85.8351 170.689 85.371 172C84.4218 174.536 83.0084 177.422 82.2701 178.34C81.3208 179.521 80.6669 179.521 80.2872 178.253C79.9918 177.378 80.0129 176.897 80.4559 173.312C80.7301 171.17 82.2068 161.42 83.7467 151.714C85.2866 141.964 86.932 131.427 87.4383 128.235L88.3243 122.508L83.9788 122.726C81.595 122.857 79.5699 123.076 79.5066 123.251C79.4223 123.382 79.1058 125.349 78.7894 127.579C78.4519 129.809 78.1144 131.471 78.0511 131.296C77.9667 131.121 77.7769 130.159 77.6292 129.197C76.6166 122.508 74.4861 120.409 70.478 122.202ZM74.929 127.098C76.5323 130.028 76.701 137.898 75.372 146.686C73.6212 158.141 68.9381 172.831 66.1958 175.454C61.0908 180.351 61.2174 162.644 66.47 141.395C68.5373 133.001 70.689 127.317 72.2078 126.399C73.136 125.787 74.4017 126.136 74.929 127.098Z" fill="black"/>
<path d="M100.834 124.038C95.3067 126.137 94.3153 126.705 94.2942 127.711C94.2942 127.885 95.0536 128.104 95.9818 128.191C97.8592 128.41 98.6819 129.241 99.0194 131.339C99.3991 133.438 98.7452 138.816 95.7497 158.228C92.7542 177.509 91.3409 186.953 91.3409 187.347C91.3409 187.478 93.4082 187.565 95.9396 187.565H100.517L102.078 178.034C105.939 154.599 111.191 136.411 113.575 138.291C113.744 138.422 114.187 139.559 114.587 140.74C115.705 144.281 117.351 145.199 118.764 143.057C119.566 141.833 120.621 138.335 121 135.624C121.443 132.476 121.443 127.361 121 125.437C120.157 121.808 117.688 120.628 115.495 122.857C112.879 125.437 109.546 135.318 105.2 153.331C104.42 156.567 103.724 159.146 103.66 159.015C103.597 158.928 103.892 156.785 104.335 154.293C106.297 142.751 107.225 137.329 108.491 129.722L109.883 121.546L108.47 121.589C107.689 121.633 104.251 122.726 100.834 124.038Z" fill="black"/>
<path d="M138.572 121.721C138.53 121.808 137.918 122.027 137.222 122.201C136.526 122.333 134.817 122.857 133.425 123.338C132.033 123.819 129.818 124.606 128.489 125.043C125.979 125.918 125.852 126.005 125.641 127.492C125.515 128.366 125.599 128.454 126.886 128.629C128.362 128.891 129.227 129.765 129.502 131.296C129.818 133.044 129.101 138.379 125.304 162.251C123.215 175.454 121.443 186.516 121.38 186.91C121.275 187.478 121.802 187.565 126.063 187.565H130.894L132.455 177.16C134.121 166.011 134.522 164.349 137.286 156.304C139.247 150.664 140.07 148.653 142.834 142.969C145.597 137.285 147.179 135.056 148.698 134.75C149.626 134.575 149.774 134.662 150.09 135.668C150.533 137.111 150.934 134.531 145.491 166.579C143.424 178.734 143.255 181.663 144.416 184.811C145.091 186.647 146.335 187.871 147.896 188.265C150.618 188.921 153.655 186.341 156.313 181.138C157.853 178.165 160.49 171.563 160.3 171.213C160.258 171.126 159.941 170.776 159.604 170.383L158.971 169.727L157.769 172.919C156.355 176.635 155.132 178.821 154.478 178.821C153.782 178.821 153.339 177.641 153.486 176.285C153.655 174.842 154.9 167.366 156.208 160.021C159.477 141.483 160.131 137.023 160.152 132.913C160.195 124.562 157.431 120.278 153.212 122.158C149.014 123.994 144.88 130.727 139.332 144.806C137.94 148.347 136.779 151.145 136.737 151.058C136.695 150.97 137.665 144.543 138.91 136.761C140.154 128.978 141.188 122.376 141.23 122.07C141.294 121.677 140.956 121.546 139.986 121.546C139.268 121.546 138.615 121.633 138.572 121.721Z" fill="black"/>
<path d="M183.104 122.246C178.864 124.126 173.527 132.783 170.151 143.319C168.928 147.123 168.358 149.353 166.692 157.004C165.932 160.458 165.342 166.842 165.321 171.607C165.321 176.898 165.743 180.439 166.882 184.068C167.515 186.079 167.894 186.822 168.886 187.828C169.94 188.921 170.383 189.096 171.818 189.096C172.852 189.052 173.927 188.746 174.602 188.309C177.028 186.56 180.235 180.57 183.441 171.695C184.327 169.246 185.002 167.629 184.939 168.11C184.855 168.591 184.475 171.345 184.053 174.231C182.808 182.669 183.019 186.254 184.855 187.959C187.913 190.845 192.639 188.44 195.845 182.363C196.562 181.008 199.094 174.755 199.621 173.05C199.98 171.87 199.98 171.87 199.305 171.126C198.651 170.427 198.63 170.427 198.123 171.651C196.183 176.46 195.634 177.641 194.917 178.384C193.883 179.477 193.398 179.477 192.913 178.384C192.596 177.685 192.575 177.247 192.765 175.892C193.271 171.957 195.529 157.179 198.144 140.565C199.684 130.684 200.95 122.595 200.95 122.552C200.929 122.508 198.946 122.639 196.52 122.77L192.111 123.076L191.457 127.449C191.078 129.853 190.74 131.602 190.656 131.383C190.592 131.121 190.381 129.897 190.17 128.585C189.643 125.262 188.377 122.683 186.922 122.027C185.551 121.415 184.833 121.459 183.104 122.246ZM187.302 126.574C187.639 126.924 188.061 127.886 188.251 128.716C190.002 136.411 188.335 150.053 183.884 164.044C181.943 170.165 180.614 173.269 179.222 174.93C177.429 177.029 176.185 176.548 175.488 173.444C174.792 170.252 175.003 165.224 176.227 155.605C176.628 152.414 178.252 144.587 179.454 139.909C182.45 128.41 185.002 124.082 187.302 126.574Z" fill="black"/>
<path d="M214.43 123.776C210.949 125 208.038 126.093 207.975 126.268C207.89 126.443 207.764 127.011 207.7 127.492C207.574 128.367 207.658 128.454 209.008 128.629C210.654 128.892 211.497 129.81 211.687 131.559C211.898 133.657 211.244 138.248 207.236 163.126C205.106 176.373 203.355 187.26 203.355 187.391C203.355 187.479 205.506 187.566 208.164 187.566H212.953L213.755 182.407C214.176 179.609 214.936 174.756 215.4 171.608C216.159 166.623 216.476 165.268 218.016 160.415C220.378 152.982 222.741 146.992 225.251 142.052C228.605 135.45 230.926 133.22 232.044 135.537C232.381 136.237 232.466 136.761 232.36 137.636C232.234 138.86 229.091 157.66 228.711 159.584C228.584 160.196 227.888 164.219 227.171 168.547C226.032 175.324 225.863 176.854 225.842 179.696C225.821 182.757 225.884 183.194 226.433 184.68C228.078 189.14 232.149 189.533 235.588 185.511C236.347 184.68 237.634 182.582 238.499 180.92C239.954 178.035 242.549 171.564 242.359 171.214C242.317 171.127 242.001 170.777 241.663 170.383L241.03 169.728L239.828 172.919C237.803 178.21 236.558 179.827 235.756 178.122C235.25 177.116 235.271 176.985 239.216 154.337C240.566 146.511 241.811 139.035 241.958 137.767C243.224 126.793 240.292 119.929 235.313 122.115C231.095 123.951 226.939 130.728 221.391 144.806C219.999 148.348 218.838 151.146 218.796 151.058C218.733 150.971 222.783 125.219 223.332 122.071C223.521 121.065 220.948 121.59 214.43 123.776Z" fill="black"/>
<path d="M114.102 203.699C113.765 204.398 113.491 205.317 113.491 205.71C113.491 206.847 114.651 208.989 115.284 208.989C117.182 208.989 118.005 204.748 116.444 203.087C115.516 202.081 114.798 202.256 114.102 203.699Z" fill="black"/>
<path d="M212.194 203.699C211.856 204.398 211.582 205.317 211.582 205.71C211.582 206.847 212.742 208.989 213.375 208.989C215.273 208.989 216.096 204.748 214.535 203.087C213.607 202.081 212.89 202.256 212.194 203.699Z" fill="black"/>
<path d="M96.2982 203.305C96.2138 203.567 96.4247 203.742 96.7833 203.742C97.142 203.742 97.6271 204.136 97.9014 204.573L98.4076 205.404L96.5302 217.121C95.5176 223.592 94.484 229.582 94.252 230.456C93.7879 232.161 93.1339 233.036 92.2901 233.036C91.9948 233.036 91.7628 233.211 91.7628 233.473C91.7628 233.735 93.3449 233.91 96.0872 233.91C98.8295 233.91 100.412 233.735 100.412 233.473C100.412 233.211 100.116 233.036 99.7577 233.036C98.8084 233.036 98.3022 232.336 98.3022 230.937C98.3022 230.281 98.7241 227.177 99.2093 224.073L100.137 218.389H101.72C103.681 218.389 104.209 219.132 104.209 221.756C104.209 222.674 104.293 223.417 104.399 223.417C104.504 223.417 104.989 220.925 105.496 217.821C105.981 214.76 106.424 212.006 106.487 211.7C106.677 210.563 106.128 211.262 105.685 212.661C105.031 214.891 103.407 216.422 101.762 216.422H100.433L101.403 210.519L102.352 204.617H104.378C105.517 204.617 106.761 204.835 107.183 205.054C108.111 205.579 108.85 207.196 109.039 209.033C109.272 211.35 109.567 210.913 110.052 207.502C110.326 205.71 110.6 203.961 110.664 203.567C110.79 202.955 110.094 202.868 103.618 202.868C99.0405 202.868 96.3825 203.043 96.2982 203.305Z" fill="black"/>
<path d="M154.731 203.305C154.647 203.567 154.836 203.742 155.153 203.742C155.849 203.742 156.44 204.354 156.608 205.272C156.672 205.666 156.292 208.595 155.765 211.743C155.237 214.935 154.394 220.225 153.887 223.504C153.381 226.827 152.79 230.106 152.6 230.806C152.2 232.205 151.504 233.036 150.723 233.036C150.428 233.036 150.196 233.211 150.196 233.473C150.196 233.735 151.778 233.91 154.52 233.91C157.262 233.91 158.845 233.735 158.845 233.473C158.845 233.211 158.591 233.036 158.254 233.036C157.473 233.036 156.735 231.899 156.735 230.718C156.735 230.15 157.157 227.177 157.642 224.073L158.57 218.389H160.152C162.114 218.389 162.642 219.132 162.642 221.756C162.642 222.674 162.747 223.417 162.853 223.417C162.979 223.417 163.064 223.373 163.064 223.286C163.064 223.242 163.485 220.575 164.013 217.34C165.089 210.738 165.025 211.175 164.772 211.175C164.667 211.175 164.371 211.831 164.118 212.661C163.464 214.891 161.84 216.422 160.195 216.422H158.866L159.836 210.519L160.785 204.617H162.81C163.949 204.617 165.194 204.835 165.616 205.054C166.544 205.579 167.282 207.196 167.472 209.033C167.704 211.35 168 210.913 168.485 207.502C168.759 205.71 169.033 203.961 169.097 203.567C169.223 202.955 168.527 202.868 162.051 202.868C157.473 202.868 154.815 203.043 154.731 203.305Z" fill="black"/>
<path d="M221.074 208.814C220.02 210.607 217.235 213.798 216.708 213.798C216.581 213.798 216.434 214.192 216.37 214.673C216.286 215.416 216.37 215.547 217.088 215.547C217.53 215.547 217.91 215.678 217.91 215.897C217.91 216.072 217.383 219.22 216.75 222.892C215.59 229.538 215.337 232.511 215.864 233.386C216.877 235.134 218.859 234.173 220.294 231.199C221.56 228.576 221.391 227.483 220.104 229.975C218.374 233.298 218.332 232.599 219.872 223.373L221.159 215.547H221.834C222.319 215.547 222.614 215.285 222.762 214.716C223.1 213.317 223.015 212.924 222.34 212.924H221.707L222.235 210.038C222.53 208.42 222.762 207.065 222.762 206.978C222.762 206.322 222.066 207.109 221.074 208.814Z" fill="black"/>
<path d="M113.512 213.187C111.318 213.842 110.748 214.148 111.634 214.192C112.626 214.28 112.562 215.635 111.297 223.024C109.799 231.725 109.757 231.987 110.221 233.036C111.212 235.31 113.195 234.348 114.862 230.85C116.064 228.314 116.001 227.396 114.756 229.713C113.87 231.331 113.596 231.593 113.385 230.85C113.28 230.544 114.334 224.248 116.381 213.012C116.507 212.356 116.149 212.4 113.512 213.187Z" fill="black"/>
<path d="M122.456 212.705C122.35 212.793 121.401 213.099 120.346 213.405C119.313 213.711 118.638 214.061 118.87 214.148C119.524 214.454 119.819 215.11 119.819 216.422C119.819 217.077 119.207 221.231 118.448 225.647C117.688 230.063 117.077 233.735 117.077 233.823C117.077 233.91 117.794 233.91 118.701 233.823L120.304 233.692L120.895 230.019C121.865 224.073 124.882 216.859 126.422 216.859C126.949 216.859 126.886 217.646 125.726 224.335C125.156 227.702 124.671 230.981 124.671 231.68C124.671 233.386 125.177 234.129 126.337 234.129C127.498 234.129 129.206 232.118 129.776 230.063C130.324 228.139 129.966 228.008 129.059 229.844C128.004 231.987 127.666 231.418 128.236 228.401C130.177 218.083 130.366 216.509 129.923 214.542C129.08 210.738 126.337 212.618 123.7 218.826C123.025 220.4 122.456 221.581 122.414 221.537C122.393 221.45 122.688 219.395 123.068 216.946L123.806 212.487L123.236 212.53C122.92 212.53 122.582 212.618 122.456 212.705Z" fill="black"/>
<path d="M139.079 213.099C136.484 214.455 134.058 218.258 132.961 222.674C132.518 224.467 132.392 225.56 132.37 227.921C132.37 230.806 132.392 230.981 133.13 232.38C134.881 235.703 138.741 234.654 141.315 230.151C142.348 228.358 141.905 228.227 140.365 229.845C139.416 230.806 138.678 231.287 138.024 231.287C136.99 231.287 135.978 230.369 135.767 229.32C135.535 228.008 135.619 225.166 135.914 225.166C136.041 225.123 136.885 224.86 137.771 224.554C139.775 223.811 141.209 222.281 142.348 219.745C143.066 218.127 143.234 217.428 143.234 216.072C143.234 213.755 142.686 212.793 141.273 212.662C140.682 212.575 139.69 212.793 139.079 213.099ZM140.26 214.848C140.998 216.728 139.142 222.237 137.412 223.33C136.463 223.898 135.851 224.03 135.851 223.592C135.851 223.461 136.189 221.975 136.611 220.313C137.834 215.548 139.522 213.012 140.26 214.848Z" fill="black"/>
<path d="M171.86 213.143C170.848 213.449 169.962 213.798 169.898 213.93C169.835 214.017 170.088 214.236 170.447 214.367C171.333 214.76 171.291 215.547 169.919 223.636C169.287 227.44 168.759 230.981 168.759 231.549C168.759 232.73 169.814 234.348 170.552 234.348C171.881 234.26 173.97 231.375 175.383 227.658C175.826 226.521 176.227 225.647 176.29 225.734C176.332 225.822 176.185 226.959 175.931 228.183C175.699 229.407 175.51 231.025 175.51 231.724C175.51 234.216 177.113 235.135 178.779 233.517C179.855 232.468 181.374 229.276 181.079 228.664C180.931 228.358 180.657 228.664 180.256 229.538C179.56 231.025 179.096 231.243 179.096 230.019C179.096 229.538 179.475 226.915 179.961 224.204C180.425 221.493 181.036 217.821 181.311 216.072L181.796 212.924H180.171H178.568L177.957 216.509C177.092 221.537 175.425 226.565 173.864 228.839C172.155 231.287 172.177 230.369 174.117 219.788L175.467 212.487L174.602 212.531C174.117 212.574 172.873 212.837 171.86 213.143Z" fill="black"/>
<path d="M186.268 213.317C184.158 214.235 183.61 214.585 184.39 214.629C185.044 214.673 185.424 215.416 185.424 216.64C185.424 217.165 184.855 221.056 184.158 225.341C183.462 229.625 182.893 233.298 182.893 233.517C182.893 233.735 183.589 233.91 184.433 233.91H185.951L186.626 230.063C187.365 225.909 188.778 220.269 189.474 218.695C190.065 217.427 190.424 217.471 190.951 218.826C191.478 220.182 191.837 220.225 192.491 218.826C193.208 217.383 193.25 213.667 192.575 212.924C191.478 211.7 190.044 214.061 188.377 219.832C187.892 221.581 187.449 222.98 187.407 222.98C187.344 222.98 188.335 217.165 188.989 213.667C189.2 212.53 189.179 212.487 188.631 212.53C188.314 212.574 187.259 212.924 186.268 213.317Z" fill="black"/>
<path d="M198.397 212.705C198.292 212.792 197.343 213.098 196.288 213.405C195.254 213.711 194.579 214.06 194.811 214.148C195.465 214.454 195.761 215.11 195.761 216.421C195.761 217.077 195.149 221.231 194.389 225.647C193.63 230.062 193.018 233.735 193.018 233.823C193.018 233.91 193.735 233.91 194.643 233.823L196.246 233.691L196.836 230.019C197.807 224.073 200.823 216.859 202.363 216.859C202.891 216.859 202.827 217.646 201.667 224.335C200.254 232.511 200.275 233.648 201.941 234.216C202.933 234.522 204.346 233.123 205.359 230.806C206.308 228.62 206.097 227.614 205.127 229.713C204.367 231.33 204.093 231.593 203.882 230.893C203.819 230.675 204.241 227.833 204.831 224.641C206.097 217.646 206.224 216.378 205.886 214.716C205.106 210.694 202.321 212.53 199.642 218.826C198.967 220.4 198.397 221.58 198.355 221.537C198.334 221.449 198.629 219.394 199.009 216.946L199.748 212.486L199.178 212.53C198.862 212.53 198.524 212.618 198.397 212.705Z" fill="black"/>
<path d="M212.637 212.924C212.109 213.099 211.118 213.405 210.422 213.58C209.493 213.842 209.282 214.017 209.662 214.192C210.717 214.761 210.675 215.416 209.304 223.461C208.586 227.659 207.996 231.375 207.996 231.768C207.996 233.736 209.641 234.829 211.012 233.736C212.025 232.949 214.029 229.014 213.818 228.271C213.712 227.965 213.459 228.271 213.122 229.101C212.447 230.763 211.814 231.506 211.54 230.938C211.371 230.588 212.151 225.778 214.472 213.012C214.598 212.443 214.134 212.4 212.637 212.924Z" fill="black"/>
<path d="M227.002 213.187C224.893 213.799 224.26 214.149 224.998 214.192C225.251 214.236 225.568 214.498 225.694 214.848C226.011 215.635 225.905 216.422 224.576 223.986C224.049 227.09 223.606 230.326 223.606 231.288C223.606 232.774 223.69 233.124 224.26 233.692C225.652 235.179 227.572 233.299 229.66 228.402C230.314 226.872 230.884 225.647 230.905 225.735C230.947 225.822 230.778 227.134 230.546 228.664C230.061 231.943 230.145 233.124 230.884 233.823C231.643 234.567 232.423 234.479 233.415 233.517C234.385 232.599 235.925 229.276 235.714 228.577C235.609 228.227 235.44 228.358 235.229 228.97C234.723 230.238 233.795 231.419 233.647 230.894C233.584 230.675 234.174 226.522 234.976 221.713L236.432 212.924H234.807H233.204L232.592 216.51C231.938 220.401 231.284 222.674 229.766 226.391C228.774 228.839 227.551 230.457 227.213 229.714C227.086 229.495 227.614 226.041 228.563 220.882L230.103 212.487L229.533 212.531C229.238 212.575 228.078 212.837 227.002 213.187Z" fill="black"/>
<path d="M240.904 213.317C238.836 214.192 238.246 214.585 238.942 214.629C239.743 214.716 240.06 215.154 240.06 216.378C240.06 217.034 239.49 221.056 238.794 225.384C238.098 229.713 237.529 233.385 237.529 233.56C237.529 233.735 238.225 233.91 239.068 233.91H240.587L241.072 230.937C242.169 224.51 244.089 217.733 244.848 217.733C245.017 217.733 245.355 218.214 245.587 218.826C246.114 220.182 246.473 220.225 247.127 218.826C247.844 217.383 247.886 213.667 247.211 212.924C246.114 211.7 244.68 214.061 243.013 219.832C242.528 221.581 242.085 222.98 242.043 222.98C241.98 222.98 242.971 217.165 243.625 213.667C243.836 212.53 243.815 212.487 243.266 212.53C242.95 212.574 241.895 212.924 240.904 213.317Z" fill="black"/>
<path d="M254.932 213.099C252.295 214.498 249.869 218.258 248.772 222.674C248.329 224.466 248.202 225.559 248.181 227.92C248.181 230.806 248.202 230.981 248.941 232.38C250.649 235.615 254.51 234.653 256.999 230.369C257.421 229.625 257.737 228.882 257.674 228.707C257.632 228.489 256.957 229.013 256.176 229.844C255.227 230.806 254.489 231.287 253.835 231.287C252.801 231.287 251.789 230.369 251.578 229.319C251.346 228.008 251.43 225.166 251.725 225.166C251.852 225.122 252.696 224.86 253.582 224.554C255.586 223.81 257.02 222.28 258.159 219.744C258.877 218.127 259.045 217.427 259.045 216.072C259.045 213.754 258.497 212.793 257.083 212.661C256.493 212.574 255.522 212.749 254.932 213.099ZM256.071 214.848C256.809 216.728 254.953 222.236 253.223 223.33C252.274 223.898 251.662 224.029 251.662 223.592C251.662 223.461 252 221.974 252.421 220.313C253.645 215.547 255.333 213.011 256.071 214.848Z" fill="black"/>
</svg>
