<svg width="289" height="289" viewBox="0 0 289 289" fill="none" xmlns="http://www.w3.org/2000/svg">
<path d="M148.293 49.042C140.237 52.1868 133.048 71.3738 129.147 100.115C127.268 114.047 127.052 117.272 126.979 132.995L126.907 147.963L124.198 151.705C120.658 156.641 114.589 162.97 111.048 165.558C106.135 169.1 100.572 170.932 97.0318 170.215C96.3093 170.056 95.1533 169.379 94.4669 168.742C92.9135 167.229 91.7575 163.448 91.7575 159.825V157.357L94.9365 155.566C99.994 152.74 103.245 150.152 107.147 145.893C111.337 141.315 113.505 137.613 114.589 133.234C115.925 127.741 114.841 122.367 111.626 118.466C108.953 115.281 105.955 114.644 102.378 116.475C100.428 117.471 96.8873 121.491 94.8281 124.954C90.6738 132 86.9529 143.305 86.122 151.147C85.9052 153.615 85.8691 153.655 84.5686 154.053C81.3896 154.969 79.8724 155.248 77.5604 155.248C75.429 155.248 74.9955 155.367 74.2369 156.243C73.0809 157.477 73.0809 158.591 74.2369 159.825C74.9955 160.661 75.429 160.821 77.452 160.821C78.7164 160.821 81.0645 160.542 82.6179 160.223C84.1712 159.905 85.4717 159.626 85.544 159.626C85.5801 159.626 85.6162 160.223 85.6162 160.98C85.6162 163.129 86.6277 167.827 87.4586 169.658C88.5062 171.967 91.0711 174.833 92.9496 175.868C96.3454 177.739 99.7411 177.858 105.052 176.306C111.771 174.355 120.332 167.827 126.474 159.945C127.738 158.313 128.677 157.397 128.786 157.716C128.858 157.994 129.111 159.109 129.328 160.223C129.942 163.328 131.495 167.548 132.976 170.215C136.914 177.062 142.874 178.216 149.449 173.32C152.195 171.29 159.853 162.891 161.84 159.706C162.707 158.352 163.466 157.278 163.502 157.357C163.682 157.556 161.623 164.244 159.673 169.777C158.3 173.718 158.191 174.275 158.553 175.629C159.131 177.659 160.792 179.132 162.599 179.132C164.513 179.132 165.958 178.256 166.645 176.664C167.114 175.509 169.426 163.249 171.088 152.939C171.413 150.869 171.811 149.356 171.955 149.555C172.063 149.714 172.497 150.749 172.858 151.864C173.906 155.049 176.94 161.537 178.819 164.602C182.142 170.016 186.477 173.599 190.415 174.196C193.63 174.673 198.471 173.081 202.481 170.175C205.66 167.906 210.826 161.975 213.427 157.636C215.811 153.655 216.064 152.58 215.016 151.545C213.752 150.272 213.065 150.67 210.717 154.053C208.658 157.079 203.637 162.373 201.18 164.164C198.543 166.075 194.678 167.588 192.33 167.588C190.812 167.588 190.126 167.349 188.717 166.274C184.382 163.09 179.794 153.138 176.362 139.444L175.64 136.578L176.94 135.662C182.504 131.96 188.934 124.039 193.991 114.644C197.423 108.315 203.023 94.9795 203.023 93.1882C203.023 92.193 201.541 90.3619 200.711 90.3619C199.41 90.3619 198.832 91.2376 196.556 96.4922C190.559 110.345 183.19 121.531 176.398 127.024C174.52 128.497 174.52 128.617 175.568 122.168C176.471 116.714 177.807 106.125 178.819 96.93C179.866 87.4957 181.239 76.7876 181.889 73.0457C182.612 68.866 182.576 68.7466 181.492 67.2737C180.625 66.1591 180.336 66.0397 178.891 66.1591C177.482 66.2785 177.085 66.4776 176.435 67.5524C175.568 68.9854 175.676 67.9106 173.761 91.357C172.967 100.99 172.136 110.305 171.919 112.057C169.21 135.225 164.008 149.714 154.507 160.661C148.763 167.309 144.067 170.733 141.466 170.215C138.395 169.578 135.83 163.408 134.566 153.576L134.024 149.316L135.577 146.808C137.058 144.38 137.961 142.788 140.454 138.17C143.019 133.354 148.582 120.735 150.822 114.604C155.338 102.304 158.769 89.6055 160.395 79.2159C161.37 73.0059 161.732 64.0095 161.154 60.3473C160.251 54.6946 158.155 50.7935 155.193 49.3207C153.531 48.4847 150.063 48.3653 148.293 49.042ZM152.737 57.1229C153.929 58.755 154.434 61.8997 154.362 67.0747C154.254 79.0566 149.883 97.6864 143.019 115.56C139.876 123.72 134.349 135.742 133.735 135.742C133.121 135.742 134.421 115.679 135.83 104.095C138.612 80.9674 145.042 59.8298 150.28 56.685C151.581 55.9287 151.942 56.0083 152.737 57.1229ZM107.544 122.685C110.723 126.547 110.254 132.279 106.28 138.21C104.401 141.036 100.644 144.818 97.4291 147.206C95.0449 148.998 92.7329 150.471 92.3716 150.471C92.1188 150.471 93.7805 143.027 94.5753 140.479C97.1401 132.438 100.969 125.313 104.148 122.725C105.557 121.571 106.605 121.571 107.544 122.685Z" fill="black"/>
<path d="M118.49 192.507C114.444 193.383 111.735 195.453 110.651 198.558C109.892 200.747 109.82 205.285 110.506 207.514C111.121 209.465 112.818 211.614 114.48 212.57C117.479 214.242 125.318 214.56 129.472 213.207C133.41 211.893 135.469 208.589 135.469 203.454C135.469 199.752 134.963 197.841 133.41 195.89C131.567 193.462 129.075 192.586 123.728 192.427C121.344 192.387 118.996 192.427 118.49 192.507ZM125.462 195.851C130.231 196.607 131.495 198.159 131.495 203.215C131.495 207.156 130.845 208.47 128.388 209.783C126.907 210.579 126.112 210.739 122.861 210.699C118.815 210.699 116.503 210.022 115.167 208.35C113.649 206.479 113.541 200.429 114.95 198.438C115.961 197.045 117.623 196.169 119.935 195.851C122.789 195.413 122.789 195.413 125.462 195.851Z" fill="black"/>
<path d="M74.7787 203.215V213.366H76.8017H78.7886L78.7164 208.47L78.6802 203.613H86.5555H94.4669L94.5752 208.47L94.6836 213.366H96.4538H98.26V203.215V193.065H96.3815H94.4669L94.5752 196.448L94.6836 199.832H86.6277H78.5719L78.6802 196.448L78.7886 193.065H76.8017H74.7787V203.215Z" fill="black"/>
<path d="M147.318 203.216L147.426 213.366H149.016H150.641L150.714 205.325L150.822 197.245L156.277 205.206L161.696 213.167L163.357 213.287L164.983 213.406L170.366 205.445C173.328 201.066 175.82 197.483 175.929 197.444C176.037 197.444 176.073 201.026 176.001 205.405L175.893 213.366H177.735H179.541V203.216V193.065H176.868H174.159L168.848 200.867C164.549 207.196 163.466 208.55 163.104 208.112C162.888 207.833 160.829 204.888 158.589 201.623C151.978 191.99 153.062 193.065 149.919 193.065H147.209L147.318 203.216Z" fill="black"/>
<path d="M192.004 203.215V213.366H203.131H214.221V211.575V209.784H205.009H195.761L195.87 207.077L195.978 204.41L204.648 204.33L213.318 204.25L213.427 202.857L213.535 201.424H204.684H195.798V198.837V196.249H204.829H213.86V194.657V193.065H202.95H192.004V203.215Z" fill="black"/>
<path d="M60.112 232.434C56.7885 234.663 58.1974 240.435 62.0989 240.515C64.1941 240.555 65.4585 239.241 65.314 237.251C65.2056 235.897 65.1695 235.857 63.6884 235.857C61.846 235.857 61.4125 236.614 63.1465 236.773C64.0857 236.892 64.3025 237.052 64.3025 237.848C64.3025 239.798 61.557 240.276 60.1481 238.604C57.8 235.817 60.2926 231.638 63.3994 233.071C64.4109 233.509 64.6637 233.509 64.6637 233.111C64.6637 232.514 63.1465 231.678 62.0266 231.678C61.5931 231.678 60.7261 232.036 60.112 232.434Z" fill="black"/>
<path d="M99.1631 232.195C97.8626 232.872 97.1763 234.305 97.1763 236.494C97.1763 239.838 100.572 241.669 103.209 239.758C103.859 239.281 104.04 238.803 104.04 237.41V235.658H102.414C101.222 235.658 100.789 235.817 100.789 236.255C100.789 236.653 101.186 236.852 102.053 236.852C103.029 236.852 103.318 237.012 103.318 237.569C103.318 238.644 102.162 239.639 100.897 239.639C100.066 239.639 99.4883 239.281 98.838 238.405C97.7181 236.972 97.6459 235.897 98.5851 234.225C99.4521 232.673 100.789 232.235 102.234 233.071C103.318 233.708 104.04 233.27 103.173 232.513C102.378 231.757 100.355 231.638 99.1631 232.195Z" fill="black"/>
<path d="M219.062 232.434C216.028 234.464 216.858 239.559 220.326 240.554C221.193 240.793 223.975 239.798 223.975 239.281C223.975 238.604 223.469 238.524 222.747 239.042C220.868 240.515 218.195 238.962 218.195 236.375C218.195 233.668 220.29 231.956 222.277 233.071C223.614 233.787 223.614 233.787 223.614 233.15C223.614 232.513 222.097 231.677 220.977 231.677C220.543 231.677 219.676 232.036 219.062 232.434Z" fill="black"/>
<path d="M227.768 232.195C226.468 232.872 225.781 234.305 225.781 236.455C225.781 239.201 228.166 241.112 230.694 240.395C232.464 239.838 233.187 238.684 233.187 236.216C233.187 234.464 233.042 233.907 232.248 233.071C231.164 231.837 229.249 231.479 227.768 232.195ZM230.839 233.071C231.959 233.708 232.826 235.857 232.428 237.091C231.634 239.52 229.213 240.395 227.66 238.843C225.998 237.131 226.179 234.504 228.057 233.27C229.43 232.315 229.502 232.315 230.839 233.071Z" fill="black"/>
<path d="M47.3237 236.255V240.435H49.8164C51.2252 240.435 52.4535 240.236 52.5619 240.036C52.7064 239.798 51.9477 239.638 50.6111 239.638H48.4075V235.857C48.4075 232.752 48.2991 232.075 47.8656 232.075C47.4321 232.075 47.3237 232.792 47.3237 236.255Z" fill="black"/>
<path d="M54.8016 236.135C54.8377 238.643 55.0184 240.275 55.2351 240.355C55.488 240.435 55.6325 239.121 55.6325 236.295C55.6325 233.19 55.5241 232.075 55.199 232.075C54.8377 232.075 54.7294 233.11 54.8016 236.135Z" fill="black"/>
<path d="M67.915 236.255C67.915 239.718 68.0234 240.435 68.4569 240.435C68.8542 240.435 68.9987 239.957 68.9987 238.444V236.414L71.0579 236.533L73.117 236.653L73.0086 238.524C72.9364 240.036 73.0447 240.435 73.4782 240.435C73.984 240.435 74.0562 239.798 74.0562 236.255C74.0562 232.792 73.9479 232.075 73.5144 232.075C73.117 232.075 72.9725 232.553 72.9725 233.866V235.658H70.9856H68.9987V233.866C68.9987 232.553 68.8542 232.075 68.4569 232.075C68.0234 232.075 67.915 232.792 67.915 236.255Z" fill="black"/>
<path d="M76.2237 232.473C76.2237 232.672 76.8017 232.871 77.4881 232.871H78.7525V236.653C78.7525 239.758 78.8609 240.435 79.2944 240.435C79.7279 240.435 79.8362 239.758 79.8362 236.653V232.871H80.92C81.5341 232.871 82.0037 232.672 82.0037 232.473C82.0037 232.234 80.8116 232.075 79.1137 232.075C77.4159 232.075 76.2237 232.234 76.2237 232.473Z" fill="black"/>
<path d="M84.1712 236.255C84.1712 239.718 84.2796 240.435 84.7131 240.435C85.1466 240.435 85.255 239.718 85.255 236.255C85.255 232.792 85.1466 232.075 84.7131 232.075C84.2796 232.075 84.1712 232.792 84.1712 236.255Z" fill="black"/>
<path d="M88.145 236.255C88.145 239.638 88.2534 240.435 88.6869 240.435C89.0842 240.435 89.2287 239.718 89.301 237.131L89.4094 233.866L91.5046 237.131C92.6606 238.962 93.8527 240.435 94.1417 240.435C94.5391 240.435 94.6475 239.599 94.6475 236.255C94.6475 232.792 94.5391 232.075 94.1056 232.075C93.6721 232.075 93.5637 232.712 93.5637 235.339V238.643L91.5046 235.339C90.2041 233.309 89.1926 232.075 88.7952 232.075C88.2172 232.075 88.145 232.473 88.145 236.255Z" fill="black"/>
<path d="M119.212 236.255C119.212 239.718 119.321 240.435 119.754 240.435C120.152 240.435 120.296 239.957 120.296 238.444V236.454H122.102C123.114 236.454 123.909 236.255 123.909 236.056C123.909 235.817 123.114 235.658 122.102 235.658H120.296V234.264V232.871H122.464C123.656 232.871 124.631 232.712 124.631 232.473C124.631 232.234 123.475 232.075 121.922 232.075H119.212V236.255Z" fill="black"/>
<path d="M126.799 235.3C126.799 239.002 127.088 239.798 128.605 240.355C129.905 240.873 131.712 240.315 132.217 239.241C132.759 238.126 132.687 232.075 132.145 232.075C131.784 232.075 131.712 232.832 131.784 234.742C131.892 238.007 131.35 239.4 129.905 239.559C128.099 239.798 127.521 238.763 127.521 235.18C127.521 233.389 127.377 232.075 127.16 232.075C126.943 232.075 126.799 233.429 126.799 235.3Z" fill="black"/>
<path d="M135.469 236.255C135.469 239.718 135.577 240.435 136.011 240.435C136.408 240.435 136.552 239.957 136.552 238.643C136.552 237.131 136.661 236.852 137.275 236.852C137.672 236.852 138.395 237.568 139.081 238.643C139.695 239.638 140.454 240.435 140.743 240.435C141.14 240.435 140.996 239.957 140.201 238.683L139.081 236.932L139.984 236.295C140.598 235.857 140.887 235.26 140.887 234.463C140.887 232.672 140.057 232.075 137.6 232.075H135.469V236.255ZM139.948 233.787C140.273 234.384 140.201 234.663 139.479 235.299C139.009 235.698 138.178 236.056 137.6 236.056C136.625 236.056 136.552 235.936 136.552 234.424V232.831L138.034 232.951C139.009 233.03 139.695 233.309 139.948 233.787Z" fill="black"/>
<path d="M143.416 236.255C143.416 239.638 143.525 240.435 143.958 240.435C144.356 240.435 144.5 239.718 144.572 237.17L144.681 233.866L146.776 237.17C149.594 241.589 149.919 241.509 149.919 236.255C149.919 232.792 149.81 232.075 149.377 232.075C148.943 232.075 148.835 232.672 148.835 235.1C148.835 238.683 148.654 238.643 146.306 234.623C145.331 232.991 144.536 232.075 144.103 232.075C143.489 232.075 143.416 232.433 143.416 236.255Z" fill="black"/>
<path d="M152.809 236.295C152.809 239.121 152.953 240.435 153.206 240.355C153.784 240.156 153.856 232.075 153.278 232.075C152.917 232.075 152.809 233.19 152.809 236.295Z" fill="black"/>
<path d="M156.06 232.473C156.06 232.672 156.638 232.871 157.324 232.871H158.589V236.653C158.589 238.922 158.733 240.435 158.95 240.435C159.167 240.435 159.311 238.922 159.311 236.653V232.871H160.576C161.262 232.871 161.84 232.672 161.84 232.473C161.84 232.234 160.648 232.075 158.95 232.075C157.252 232.075 156.06 232.234 156.06 232.473Z" fill="black"/>
<path d="M164.008 235.379C164.008 238.365 164.08 238.803 164.875 239.599C166.139 240.912 168.234 240.833 169.318 239.439C170.04 238.564 170.149 237.967 170.149 235.22C170.149 232.672 170.04 232.075 169.607 232.075C169.173 232.075 169.065 232.672 169.065 235.22C169.065 238.763 168.632 239.638 166.934 239.638C165.38 239.638 165.091 239.002 165.091 235.379C165.091 232.712 164.983 232.075 164.549 232.075C164.116 232.075 164.008 232.712 164.008 235.379Z" fill="black"/>
<path d="M172.93 236.135C172.966 238.643 173.147 240.275 173.364 240.355C173.617 240.435 173.761 239.798 173.761 238.683C173.761 237.011 173.833 236.852 174.664 236.852C175.315 236.852 175.784 237.29 176.507 238.643C177.012 239.638 177.663 240.435 177.952 240.435C178.53 240.435 178.638 239.798 178.096 239.439C177.879 239.32 177.482 238.643 177.157 238.006C176.615 236.852 176.651 236.772 177.518 236.016C178.602 235.1 178.71 234.225 177.879 232.951C177.41 232.194 177.012 232.075 175.098 232.075H172.858L172.93 236.135ZM177.012 233.468C177.699 234.384 177.265 235.419 176.037 235.777C174.375 236.334 173.761 235.936 173.761 234.264C173.761 232.911 173.797 232.871 175.17 232.871C175.929 232.871 176.76 233.11 177.012 233.468Z" fill="black"/>
<path d="M180.986 236.255V240.435H183.696C186.983 240.435 187.344 239.718 184.165 239.559L181.889 239.439V238.046V236.653L183.804 236.533C186.297 236.374 186.224 235.658 183.696 235.658H181.709V234.264V232.871H183.876C185.068 232.871 186.044 232.712 186.044 232.473C186.044 232.234 184.96 232.075 183.515 232.075H180.986V236.255Z" fill="black"/>
<path d="M201.216 236.255V240.435H202.95C205.19 240.435 206.31 239.758 207.105 237.927C207.719 236.613 207.719 236.255 207.285 234.782C206.707 232.712 205.696 232.075 203.131 232.075H201.216V236.255ZM205.732 233.866C207.755 236.056 206.201 239.638 203.239 239.638C202.3 239.638 202.3 239.638 202.3 236.255V232.871H203.564C204.467 232.871 205.154 233.19 205.732 233.866Z" fill="black"/>
<path d="M209.886 236.255V240.435H212.596C214.149 240.435 215.305 240.275 215.305 240.036C215.305 239.798 214.33 239.638 213.101 239.638H210.934L211.042 238.126L211.151 236.653L213.065 236.533C215.558 236.374 215.486 235.658 212.957 235.658H210.97V234.264V232.871H213.137C214.33 232.871 215.305 232.712 215.305 232.473C215.305 232.234 214.149 232.075 212.596 232.075H209.886V236.255Z" fill="black"/>
<path d="M235.896 236.255C235.896 239.718 236.005 240.435 236.438 240.435C236.836 240.435 236.98 239.957 236.98 238.643C236.98 237.131 237.088 236.852 237.666 236.852C238.1 236.852 238.786 237.529 239.4 238.524C239.978 239.479 240.737 240.275 241.098 240.355C241.64 240.474 241.568 240.196 240.629 238.723L239.509 236.932L240.412 236.295C241.026 235.857 241.315 235.26 241.315 234.463C241.315 232.672 240.484 232.075 238.028 232.075H235.896V236.255ZM240.267 233.747C240.629 234.463 240.556 234.702 239.87 235.339C239.437 235.737 238.606 236.056 238.028 236.056C237.052 236.056 236.98 235.936 236.98 234.463C236.98 232.871 236.98 232.871 238.425 232.871C239.509 232.871 239.942 233.07 240.267 233.747Z" fill="black"/>
<path d="M110.687 235.857C110.542 236.216 110.615 236.693 110.831 236.932C111.373 237.529 112.421 236.972 112.276 236.176C112.132 235.26 110.976 235.021 110.687 235.857Z" fill="black"/>
<path d="M192.618 235.738C192.077 236.454 192.655 237.37 193.485 237.171C194.316 237.011 194.425 235.538 193.594 235.339C193.269 235.3 192.835 235.459 192.618 235.738Z" fill="black"/>
</svg>
