<svg width="289" height="289" viewBox="0 0 289 289" fill="none" xmlns="http://www.w3.org/2000/svg">
<path d="M82.654 11.8363C81.2812 14.9108 77.0185 33.665 76.2237 40.4288C75.7902 43.8108 74.2007 46.2703 68.3485 53.1879C56.933 66.7155 52.309 73.6331 42.9887 91.6187C28.322 119.904 27.3827 122.978 24.7817 148.343C23.4812 161.717 23.9147 171.862 26.299 180.932C28.611 189.541 28.9722 188.157 17.4845 211.523C12.716 221.208 8.52548 230.585 8.30873 232.276C7.65848 236.58 9.46473 240.423 11.4155 239.193C12.2102 238.578 15.1002 234.428 17.8457 229.816C20.519 225.204 22.9032 222.13 22.9755 222.899C23.1922 223.975 66.1087 224.436 146.74 224.436C269.709 224.436 270.215 224.436 270.215 221.361C270.215 218.287 269.709 218.287 147.318 218.287H24.3482L27.166 211.677C28.7555 208.141 30.7785 202.914 31.79 200.301C33.524 195.536 33.813 195.382 36.125 196.766C44.9395 202.146 58.7392 193.384 69.5767 175.705C73.4782 169.249 81.7147 147.882 86.6277 131.279C89.1565 123.132 89.59 113.909 87.7837 110.066C85.9775 106.376 81.0645 104.224 75.7902 104.839L71.0217 105.3L63.5077 119.135C59.3895 126.668 54.4042 135.584 52.3812 138.966C50.4305 142.347 45.8065 151.11 42.1217 158.642C38.437 166.021 35.1857 172.17 34.7522 172.17C33.5962 172.17 32.2957 161.255 32.2235 151.417C32.1512 144.038 32.5847 140.503 34.3187 133.739C38.0035 119.443 54.6932 86.5459 67.8427 67.7916L74.273 58.5682L74.7065 69.0214C75.3567 82.3953 77.5965 92.0799 80.92 95.7693C82.943 98.0751 84.5325 98.3826 88.7952 97.7677C98.9825 96.3842 108.086 82.3953 113.143 60.5666C115.311 51.3432 115.817 47.5001 116.106 36.5858C116.395 25.5177 116.25 23.2118 114.877 18.7538C111.048 5.68736 101.367 6.76342 89.7345 21.3671C87.6392 23.9804 85.7607 26.1326 85.6162 26.1326C85.3995 26.1326 85.833 23.2118 86.4832 19.8299C87.6392 13.681 87.567 13.2198 86.3387 11.3751C84.6047 8.6081 84.1712 8.6081 82.654 11.8363ZM109.603 30.2831C112.854 47.039 107.074 69.4826 96.6705 80.7044C92.9135 84.7012 90.6015 86.0847 88.0727 86.0847C83.7377 86.0847 82.5817 83.0102 81.4257 68.5602C80.7755 59.9517 80.7755 57.6459 81.787 53.3416C83.7377 44.7331 93.4915 32.7427 103.317 26.7475C108.086 23.9804 108.375 24.1342 109.603 30.2831ZM83.81 118.213C83.81 118.982 83.3042 120.519 82.654 121.595C82.0037 122.825 79.475 129.281 77.0907 136.045C66.9035 164.637 60.6177 176.013 51.2252 182.777C46.6735 186.005 39.015 187.235 39.015 184.621C39.015 182.469 53.754 153.108 62.0627 138.812C66.2532 131.587 71.672 123.747 74.0562 121.287C78.1745 116.983 83.81 115.292 83.81 118.213Z" fill="black"/>
<path d="M157.866 13.681C151.653 17.063 138.359 36.2784 130.411 53.0342C119.935 75.3241 101.945 117.444 97.8265 129.127C91.7575 146.344 89.6622 150.649 84.677 155.414C78.9692 160.948 75.8625 165.56 75.8625 168.481C75.8625 171.555 77.0185 171.248 82.0037 166.79C87.856 161.717 88.145 161.717 87.3502 168.634C86.989 171.862 86.7 177.396 86.7 180.932C86.7 191.846 89.4455 195.228 98.26 195.228C105.629 195.228 111.698 191.078 118.056 181.701L123.042 174.476L125.065 178.626C126.799 182.316 127.593 182.931 131.423 182.931C135.396 182.931 136.119 182.316 140.598 175.859L145.511 168.634L148.763 171.248C155.121 176.013 159.528 173.707 167.981 160.794C169.932 157.72 171.81 155.26 172.099 155.26C172.966 155.26 172.822 167.866 171.955 173.246C171.377 176.782 170.076 178.78 166.247 182.777C154.615 194.613 153.459 210.908 164.658 204.452C166.681 203.376 168.559 200.455 171.016 194.613C173.111 189.541 175.351 185.851 176.651 185.236C178.746 184.16 185.104 176.167 195.075 161.87C197.676 158.335 200.06 155.26 200.349 155.26C201.072 155.26 200.999 165.867 200.132 172.17C199.554 176.782 198.76 178.165 194.497 182.623C188.211 188.926 184.96 195.536 184.96 201.838V206.45L189.439 205.528C194.352 204.606 196.448 201.992 199.771 192.615C201.361 188.157 202.806 186.005 205.118 184.621C206.924 183.699 210.32 179.856 212.776 176.167C215.233 172.477 218.99 167.866 221.157 165.713L225.059 161.87V169.71C225.059 176.782 225.203 177.55 226.793 178.011C228.816 178.626 238.28 169.095 240.231 164.484C241.17 162.332 241.315 160.794 240.809 159.718C240.303 158.642 238.931 159.257 236.402 162.024C228.96 170.018 228.671 166.636 235.535 151.571C238.353 145.422 240.592 139.273 240.592 137.89C240.592 133.432 237.197 134.815 234.234 140.657C232.645 143.577 227.732 150.187 223.18 155.414C203.311 178.319 204.467 177.858 204.467 162.946C204.467 150.034 205.551 144.653 209.164 139.888C213.788 133.739 215.377 124.823 212.343 121.441C209.958 118.674 207.502 120.98 205.334 128.051C201.361 141.118 188.717 164.023 181.781 170.786C176.651 175.706 176.29 175.244 176.29 162.946C176.29 150.341 177.518 144.038 180.553 140.657C185.393 135.43 187.272 124.362 183.876 121.134C181.42 118.828 178.891 121.441 177.301 127.898C175.929 133.432 166.103 153.723 161.623 160.179C158.3 165.099 156.638 165.56 155.048 162.024C153.242 158.181 153.676 154.645 157.144 145.576C158.95 140.81 160.395 135.584 160.395 133.893C160.395 129.127 157.505 128.359 154.037 132.048C151.508 134.815 151.002 134.815 149.846 132.97C146.017 126.821 140.815 131.894 130.772 151.571C127.81 157.412 122.536 166.328 119.068 171.248C113.866 178.78 111.771 180.778 106.93 183.084C100.644 185.851 97.7542 185.236 95.2977 180.471C93.347 176.628 93.636 171.401 96.3092 162.178C98.0432 156.029 99.5605 153.108 102.523 149.726C118.634 131.741 137.708 100.074 158.083 57.1848C164.513 43.6571 168.993 22.7507 166.753 16.6018C165.669 13.5273 160.973 11.9901 157.866 13.681ZM158.083 33.6651C159.6 35.6635 157.794 41.9662 150.786 58.5683C141.538 80.5507 131.712 98.3826 117.117 119.75C105.196 136.967 105.051 135.123 116.033 107.606C133.373 64.256 150.28 32.589 156.06 32.4353C156.638 32.2816 157.577 32.8965 158.083 33.6651Z" fill="black"/>
<path d="M240.376 99.4591C239.581 100.996 239.798 113.909 240.665 120.673C241.604 128.052 243.194 132.202 245.144 132.202C246.373 132.202 246.445 131.434 246.011 127.129C245.361 120.673 245.361 114.678 246.011 105.608L246.589 98.383H243.699C242.11 98.383 240.593 98.8442 240.376 99.4591Z" fill="black"/>
<path d="M261.545 134.2C249.696 142.809 238.425 167.251 238.425 184.16C238.425 193.845 240.159 195.997 248.107 195.997H254.681L263.713 186.312C276.862 172.17 283.87 161.409 279.824 161.409C279.102 161.409 275.128 165.56 270.938 170.633C257.933 186.312 249.552 192.461 245.433 189.233C242.905 187.235 242.977 183.699 245.578 175.091C250.563 158.642 255.765 150.649 261.617 150.649C267.108 150.649 271.949 145.422 272.238 139.119C272.744 130.203 269.131 128.666 261.545 134.2Z" fill="black"/>
<path d="M36.8475 255.949V276.702H39.3762H41.905V268.247V259.793H45.5175H49.13V254.412V249.032H45.5175C42.772 249.032 41.905 248.417 41.905 246.726C41.905 244.881 42.8442 244.42 45.8787 244.42C49.7802 244.42 49.8525 244.42 49.8525 239.809V235.197H43.35H36.8475V255.949Z" fill="black"/>
<path d="M63.58 251.338C63.58 260.1 63.9412 269.016 64.3747 271.168C65.4585 276.241 68.6375 278.854 72.4667 277.778C77.3797 276.395 78.03 273.32 78.03 252.721V235.197H75.5012H72.9725V251.184C72.9725 264.558 72.7557 267.325 71.8165 268.094C69.36 270.092 68.6375 266.249 68.6375 250.415V235.197H66.1087H63.58V251.338Z" fill="black"/>
<path d="M93.2025 255.95V276.703H95.7312H98.26V268.248C98.26 260.408 98.4045 259.793 99.994 259.793C101.872 259.793 102.595 263.021 102.595 271.63C102.595 276.549 102.739 276.703 105.485 276.703C108.664 276.703 108.592 277.779 106.93 261.177C106.641 257.948 106.641 254.566 107.002 253.49C108.303 249.032 107.725 241.654 105.774 238.425C104.184 235.812 102.812 235.197 98.549 235.197H93.2025V255.95Z" fill="black"/>
<path d="M122.102 255.949V276.702H124.631H127.16V266.249L127.232 255.949L129.761 266.249C132.073 276.087 132.362 276.702 134.746 276.702H137.275V255.949V235.197H135.107H132.94V247.034L132.868 259.024L129.978 247.034C127.232 235.658 127.015 235.197 124.631 235.197H122.102V255.949Z" fill="black"/>
<path d="M151.725 255.949V276.702H154.254H156.782V255.949V235.197H154.254H151.725V255.949Z" fill="black"/>
<path d="M169.788 239.809C169.788 244.113 170.004 244.42 172.316 244.42H174.845V260.561V276.702H177.374H179.903V260.561V244.42H182.431C184.743 244.42 184.96 244.113 184.96 239.809V235.197H177.374H169.788V239.809Z" fill="black"/>
<path d="M198.109 252.721C198.254 267.325 198.543 270.707 199.699 273.474C202.372 279.776 209.38 279.469 211.403 272.859C212.126 270.399 212.632 263.635 212.921 252.26L213.354 235.197H210.681H208.08V245.496C208.08 259.639 207.43 267.171 206.129 268.247C203.745 270.092 203.022 266.095 203.022 250.415V235.197H200.421H197.82L198.109 252.721Z" fill="black"/>
<path d="M227.587 255.949V276.702H230.116H232.645V268.247C232.645 260.407 232.789 259.793 234.379 259.793C236.402 259.793 236.98 262.252 236.98 270.707C236.98 276.702 236.98 276.702 239.798 276.702H242.615L242.254 270.092C242.11 266.556 241.676 261.791 241.315 259.639C241.026 257.487 241.026 254.72 241.387 253.49C242.543 249.647 242.11 241.499 240.592 238.271C239.364 235.658 238.208 235.197 233.367 235.197H227.587V255.949Z" fill="black"/>
<path d="M257.21 255.949V276.702H264.074H270.938V272.09V267.479H266.241H261.545V262.867V258.255H265.88H270.215V253.644V249.032H265.88C262.484 249.032 261.545 248.571 261.545 246.726C261.545 244.881 262.557 244.42 266.241 244.42H270.938V239.809V235.197H264.074H257.21V255.949Z" fill="black"/>
</svg>
